<?xml version="1.0" encoding="iso-8859-1"?>
<!-- Generator: Adobe Illustrator 19.0.0, SVG Export Plug-In . SVG Version: 6.00 Build 0)  -->
<svg version="1.1" id="Capa_1" xmlns="http://www.w3.org/2000/svg" xmlns:xlink="http://www.w3.org/1999/xlink" x="0px" y="0px"
	 viewBox="0 0 512 512" style="enable-background:new 0 0 512 512;" xml:space="preserve">
<g>
	<path style="fill:#FF8250;" d="M256.001,7.5L256.001,7.5c-75.262,0-136.274,61.012-136.274,136.274v48.097h272.548v-48.097
		C392.275,68.512,331.263,7.5,256.001,7.5z"/>
	<path style="fill:#FF8250;" d="M167.824,321.572c0-7.987-2.73-15.272-7.25-20.985c-2.712-3.427-2.712-8.34,0-11.766
		c4.52-5.712,7.25-12.997,7.25-20.984c0-1.031-15.944-42.894-16.032-43.902l-12.024-5.638c-11.741,4.951-20.04,16.887-20.04,30.876
		c0,7.987,2.73,15.271,7.25,20.984c2.712,3.427,2.712,8.34,0,11.766c-4.52,5.713-7.25,12.998-7.25,20.985
		c0,8.267,2.916,15.792,7.723,21.592c3.145,3.797,3.145,9.13,0,12.927c-4.807,5.8-7.723,13.326-7.723,21.594
		c0,11.201,5.321,21.086,13.471,27.123l34.095-14.505c-1.046-5.877-3.587-11.197-7.192-15.547c-3.145-3.797-3.145-9.13,0-12.927
		C164.908,337.364,167.824,329.839,167.824,321.572z"/>
	<path style="fill:#FF8250;" d="M344.178,321.572c0-7.987,2.73-15.272,7.25-20.985c2.711-3.427,2.711-8.34,0-11.766
		c-4.52-5.712-7.25-12.997-7.25-20.984c0-1.031,15.944-42.894,16.032-43.902l12.024-5.638c11.741,4.951,20.04,16.887,20.04,30.876
		c0,7.987-2.73,15.271-7.25,20.984c-2.712,3.427-2.712,8.34,0,11.766c4.52,5.713,7.25,12.998,7.25,20.985
		c0,8.267-2.916,15.792-7.723,21.592c-3.145,3.797-3.145,9.13,0,12.927c4.807,5.8,7.723,13.326,7.723,21.594
		c0,11.201-5.321,21.086-13.471,27.123l-34.095-14.505c1.046-5.877,3.587-11.197,7.192-15.547c3.145-3.797,3.145-9.13,0-12.927
		C347.094,337.364,344.178,329.839,344.178,321.572z"/>
</g>
<path style="fill:#F7D291;" d="M408.283,396.981l-82.792-29.221c-12.82-4.525-21.393-16.642-21.393-30.237v-65.491h-96.194v65.491
	c0,13.595-8.573,25.712-21.393,30.236l-82.793,29.221c-19.229,6.787-32.089,24.962-32.089,45.354V504.5h368.742v-62.165
	C440.372,421.943,427.513,403.768,408.283,396.981z"/>
<path style="fill:#E3AA75;" d="M408.283,396.981l-64.408-22.732c-3.108,45.877-41.208,82.155-87.874,82.155
	s-84.765-36.278-87.874-82.155l-64.408,22.732c-19.23,6.787-32.089,24.962-32.089,45.354V504.5h368.742v-62.165
	C440.372,421.943,427.512,403.768,408.283,396.981z"/>
<path style="fill:#F0C382;" d="M207.904,326.241c14.753,6.391,31.02,9.92,48.097,9.92s33.344-3.529,48.097-9.92v-38.177h-96.194
	L207.904,326.241L207.904,326.241z"/>
<path style="fill:#FFE1A0;" d="M372.235,175.839h-8.016c0,0-10.734-1.293-14.018-2.202c-18.212-5.043-57.641-20.789-87.51-66.825
	c-3.147-4.851-10.232-4.851-13.378,0c-29.869,46.036-69.298,61.782-87.51,66.825c-3.284,0.909-14.018,2.202-14.018,2.202h-8.016
	c-11.068,0-20.04,8.972-20.04,20.04s8.972,20.04,20.04,20.04h12.429c4.106,53.795,48.958,96.194,103.805,96.194
	s99.699-42.398,103.805-96.194h12.429c11.068,0,20.04-8.973,20.04-20.04C392.275,184.811,383.303,175.839,372.235,175.839z"/>
<g>
	<polygon style="fill:#FFD164;" points="304.09,328.145 304.098,328.148 304.098,327.887 	"/>
	<polygon style="fill:#FFD164;" points="207.904,327.887 207.904,328.148 207.912,328.145 	"/>
</g>
<path style="fill:#FFFFFF;" d="M219.928,228.612c0,17.709,16.15,32.065,36.073,32.065s36.073-14.356,36.073-32.065H219.928z"/>
<path style="fill:#D29B6E;" d="M390.279,390.627l-46.404-16.378c-3.109,45.877-41.208,82.155-87.874,82.155
	s-84.765-36.278-87.874-82.155l-46.404,16.378C132.428,455.206,188.386,504.5,256.001,504.5S379.574,455.206,390.279,390.627z"/>
<path style="fill:#EDEBED;" d="M256.001,480.452c57.137,0,104.199-42.733,111.221-97.963l-39.099-13.8
	c-0.252,39.629-32.433,71.682-72.122,71.682s-71.87-32.053-72.122-71.682l-39.099,13.8
	C151.802,437.719,198.864,480.452,256.001,480.452z"/>
<path style="fill:#F7D291;" d="M255.999,141.807c15.758,17.039,40.157,38.628,70.363,50.065
	c12.463,4.719,25.833-4.456,25.833-17.783v-0.013c-0.784-0.151-1.493-0.299-1.994-0.438c-18.208-5.042-57.621-20.781-87.487-66.789
	c-3.154-4.859-10.261-4.876-13.414-0.017c-21.107,32.522-46.924,49.863-66.7,59.042c-1.335,0.619-12.13,4.989-13.379,5.419
	c-2.712,0.936-5.255,1.746-7.418,2.345c-3.284,0.909-14.018,2.202-14.018,2.202h-6.873c-10.483,0-20.035,7.542-21.08,17.973
	c-1.201,11.996,8.187,22.108,19.937,22.108h12.429c4.106,53.795,48.958,96.194,103.805,96.194c5.466,0,10.793-0.547,16.032-1.359
	c-45.768-7.087-81.73-43.847-87.399-90.052c-0.163-1.33-0.324-3.266-0.47-5.575c-0.8-12.585,5.877-24.543,17.067-30.357
	C224.264,172.803,243.059,155.797,255.999,141.807z"/>
<path style="fill:#FF9664;" d="M281.19,9.922c-5.823,12.701-9.157,26.78-9.157,41.667c0,55.34,44.862,100.202,100.202,100.202
	c6.863,0,13.564-0.698,20.04-2.012v-6.004C392.275,77.129,344.403,21.75,281.19,9.922z"/>
<path d="M215.404,192.568v-8.016c0-4.142-3.357-7.5-7.5-7.5s-7.5,3.358-7.5,7.5v8.016c0,4.142,3.357,7.5,7.5,7.5
	S215.404,196.71,215.404,192.568z"/>
<path d="M304.098,177.052c-4.143,0-7.5,3.358-7.5,7.5v8.016c0,4.142,3.357,7.5,7.5,7.5s7.5-3.358,7.5-7.5v-8.016
	C311.598,180.41,308.24,177.052,304.098,177.052z"/>
<path d="M410.779,389.909l-18.79-6.632c4.98-6.948,7.786-15.438,7.786-24.256c0-9.657-3.355-19.025-9.447-26.378
	c-0.845-1.02-0.845-2.338,0-3.357c6.092-7.353,9.447-16.72,9.447-26.377c0-9.307-3.149-18.412-8.869-25.639
	c-0.554-0.701-0.554-1.757,0-2.458c5.72-7.227,8.869-16.332,8.869-25.638c0-11.691-4.782-22.474-12.804-30.051
	c7.602-4.839,12.681-13.297,12.789-22.932c0.004-0.104,0.016-0.206,0.016-0.311v-52.105C399.775,64.497,335.278,0,256.001,0
	S112.227,64.497,112.227,143.774v51.797c-0.001,0.103-0.008,0.205-0.008,0.308c0,9.768,5.116,18.359,12.805,23.25
	c-8.018,7.577-12.798,18.356-12.798,30.044c0,9.306,3.149,18.411,8.868,25.637c0.555,0.701,0.555,1.758,0.001,2.458
	c-5.72,7.227-8.869,16.333-8.869,25.639c0,9.657,3.355,19.025,9.447,26.377c0.845,1.02,0.845,2.338,0,3.357
	c-6.092,7.354-9.447,16.722-9.447,26.379c0,8.818,2.806,17.308,7.786,24.256l-18.79,6.632c-22.187,7.83-37.093,28.899-37.093,52.427
	V504.5c0,4.142,3.357,7.5,7.5,7.5s7.5-3.358,7.5-7.5v-62.165c0-17.18,10.885-32.564,27.085-38.282l32.546-11.487
	c5.292,25.567,18.912,48.856,38.809,66.121c21.749,18.872,49.603,29.264,78.431,29.264c28.994,0,56.97-10.499,78.773-29.563
	c19.727-17.248,33.207-40.405,38.468-65.822l32.545,11.486c16.2,5.718,27.085,21.102,27.085,38.282V504.5c0,4.142,3.357,7.5,7.5,7.5
	s7.5-3.358,7.5-7.5v-62.165C447.872,418.808,432.966,397.739,410.779,389.909z M352.958,369.501
	c1.015-3.146,2.612-6.083,4.718-8.625c5.486-6.623,5.486-15.874,0-22.497c-3.867-4.667-5.997-10.636-5.997-16.807
	c0-6.028,1.947-11.675,5.632-16.331c4.831-6.106,4.831-14.97-0.001-21.074c-3.684-4.655-5.631-10.302-5.631-16.33
	c0-0.803,0.035-1.613,0.104-2.406c0.003-0.04,0.001-0.08,0.004-0.12c7.564-12.574,12.719-26.752,14.833-41.892h0.141
	c0.698,0.747,1.556,1.366,2.559,1.789c9.389,3.959,15.455,13.366,15.455,23.965c0,6.028-1.947,11.674-5.632,16.33
	c-4.831,6.106-4.831,14.969,0.001,21.075c3.684,4.655,5.631,10.302,5.631,16.331c0,6.17-2.13,12.139-5.998,16.808
	c-5.486,6.623-5.486,15.874,0,22.497c3.868,4.668,5.998,10.638,5.998,16.809c0,7.216-2.906,14.068-7.894,18.924L352.958,369.501z
	 M327.986,360.688c-9.803-3.46-16.389-12.769-16.389-23.165v-32.758c10.393-5.99,19.732-13.608,27.678-22.497
	c1.491,4.031,3.596,7.826,6.271,11.208c0.555,0.701,0.555,1.757,0.001,2.458c-5.72,7.227-8.869,16.333-8.869,25.639
	c0,9.658,3.354,19.025,9.446,26.377c0.845,1.02,0.845,2.338,0,3.357c-3.236,3.905-5.701,8.398-7.304,13.205L327.986,360.688z
	 M256.001,15c71.007,0,128.774,57.768,128.774,128.774v27.602c-3.766-1.937-8.03-3.037-12.549-3.037c0.002,0-3.437,0-3.902-0.002
	c-0.035,0-0.07-0.001-0.105-0.001c-7.251,0-14.683-1.029-22.089-3.059c-3.997-1.093-8.121,1.256-9.216,5.251
	s1.256,8.121,5.251,9.216c8.697,2.384,17.463,3.592,26.054,3.592v-0.028c0.944,0.031,2.211,0.031,4.008,0.031
	c6.915,0,12.541,5.625,12.541,12.54s-5.626,12.541-12.541,12.541h-4.53c0.001-0.172,0.007-0.344,0.007-0.516
	c0-4.142-3.357-7.5-7.5-7.5s-7.5,3.358-7.5,7.5c0,53.326-43.384,96.709-96.71,96.709s-96.71-43.384-96.71-96.709
	c0-4.142-3.357-7.5-7.5-7.5s-7.5,3.358-7.5,7.5c0,0.173,0.006,0.344,0.007,0.516h-4.531c-6.889,0-12.494-5.584-12.536-12.463
	c0-0.026,0.004-0.051,0.004-0.077v-0.154c0.084-6.843,5.669-12.386,12.532-12.386c1.797,0,3.064,0,4.009-0.031v0.028
	c53.637,0,96.062-46.498,111.813-66.49c0.051-0.064,0.169-0.215,0.413-0.215c0.244,0,0.362,0.151,0.413,0.215
	c9.598,12.181,29.663,34.914,56.227,50.302c3.585,2.076,8.173,0.855,10.249-2.73c2.077-3.584,0.854-8.173-2.729-10.249
	c-24.4-14.135-43.03-35.267-51.963-46.605c-2.971-3.77-7.416-5.933-12.196-5.933c-4.78,0-9.226,2.163-12.196,5.932
	c-43.214,54.851-84.35,60.772-100.029,60.772c-0.035,0-0.069,0-0.104,0.001c-0.46,0.002-3.906,0.002-3.905,0.002
	c-4.512,0-8.77,1.098-12.532,3.029v-27.594C127.227,72.768,184.994,15,256.001,15z M184.016,360.688l-10.834,3.824
	c-1.603-4.807-4.068-9.3-7.304-13.205c-0.845-1.02-0.845-2.338,0-3.357c6.092-7.352,9.446-16.72,9.446-26.377
	c0-9.307-3.149-18.412-8.868-25.639c-0.555-0.701-0.555-1.757,0.001-2.459c2.672-3.377,4.775-7.168,6.266-11.194
	c7.947,8.888,17.288,16.505,27.682,22.494v32.749C200.404,347.919,193.818,357.228,184.016,360.688z M127.227,359.021
	c0-6.171,2.13-12.141,5.998-16.809c5.486-6.623,5.486-15.874,0-22.497c-3.868-4.668-5.998-10.637-5.998-16.807
	c0-6.028,1.947-11.675,5.631-16.331c4.832-6.105,4.832-14.969,0-21.075c-3.684-4.655-5.631-10.301-5.631-16.329
	c0-10.599,6.066-20.006,15.455-23.965c1.003-0.423,1.861-1.042,2.559-1.789h0.125c2.115,15.151,7.276,29.339,14.849,41.92
	c0.002,0.031,0.001,0.061,0.003,0.091c0.069,0.793,0.104,1.603,0.104,2.406c0,6.027-1.947,11.674-5.63,16.329
	c-4.833,6.105-4.833,14.969-0.001,21.076c3.684,4.655,5.631,10.302,5.631,16.331c0,6.171-2.13,12.14-5.997,16.808
	c-5.486,6.623-5.486,15.874,0,22.497c2.106,2.542,3.703,5.478,4.718,8.625l-23.924,8.443
	C130.132,373.089,127.227,366.237,127.227,359.021z M324.9,447.097c-19.068,16.672-43.537,25.854-68.899,25.854
	c-25.217,0-49.579-9.089-68.6-25.593c-17.929-15.558-30.02-36.699-34.335-59.841l24.021-8.478
	c2.39,17.65,10.596,33.925,23.575,46.466c14.926,14.422,34.578,22.365,55.339,22.365c13.579,0,26.989-3.48,38.779-10.063
	c3.617-2.02,4.911-6.588,2.892-10.205c-2.019-3.617-6.587-4.911-10.204-2.892c-9.561,5.338-20.441,8.16-31.467,8.16
	c-33.884,0-61.584-25.693-64.407-59.06c14.349-6.231,23.811-20.477,23.811-36.287v-25.545c12.587,4.926,26.277,7.635,40.589,7.635
	c14.317,0,28.013-2.711,40.604-7.641v25.551c0,15.807,9.457,30.05,23.801,36.283c-1.005,11.769-5.173,22.952-12.174,32.529
	c-2.444,3.344-1.716,8.036,1.628,10.481c1.335,0.976,2.885,1.446,4.421,1.446c2.312,0,4.592-1.065,6.061-3.074
	c7.845-10.731,12.804-23.096,14.575-36.15l24.039,8.484C354.656,410.532,342.678,431.553,324.9,447.097z"/>
<path d="M292.073,221.111h-72.145c-4.143,0-7.5,3.358-7.5,7.5c0,21.816,19.547,39.565,43.572,39.565s43.572-17.749,43.572-39.565
	C299.573,224.469,296.216,221.111,292.073,221.111z M256.001,253.176c-12.714,0-23.516-7.176-27.211-17.065h54.422
	C279.517,246,268.715,253.176,256.001,253.176z"/>
<g>
</g>
<g>
</g>
<g>
</g>
<g>
</g>
<g>
</g>
<g>
</g>
<g>
</g>
<g>
</g>
<g>
</g>
<g>
</g>
<g>
</g>
<g>
</g>
<g>
</g>
<g>
</g>
<g>
</g>
</svg>
