<?xml version="1.0" encoding="iso-8859-1"?>
<!-- Generator: Adobe Illustrator 19.0.0, SVG Export Plug-In . SVG Version: 6.00 Build 0)  -->
<svg version="1.1" id="Capa_1" xmlns="http://www.w3.org/2000/svg" xmlns:xlink="http://www.w3.org/1999/xlink" x="0px" y="0px"
	 viewBox="0 0 512 512" style="enable-background:new 0 0 512 512;" xml:space="preserve">
<path style="fill:#8CB4EB;" d="M339.843,329.686L256,400.29l-83.843-70.604c-43.409-36.555-68.464-90.409-68.464-147.159v-22.721
	C103.694,75.69,171.883,7.5,256,7.5l0,0c84.116,0,152.306,68.19,152.306,152.306v22.721
	C408.306,239.277,383.251,293.131,339.843,329.686z"/>
<path style="fill:#E3AA75;" d="M413.862,374.103l-84.486-24.849c-10.235-3.01-17.263-12.403-17.263-23.071v-38.119H199.887v38.119
	c0,10.668-7.028,20.061-17.263,23.071l-84.486,24.849c-20.469,6.02-34.526,24.806-34.526,46.142V504.5h384.774v-84.254
	C448.387,398.91,434.331,380.124,413.862,374.103z"/>
<path style="fill:#8CB4EB;" d="M413.862,374.103l-84.486-24.849c-1.429-0.42-2.777-0.991-4.07-1.646l-69.31,52.682l-69.302-52.682
	c-1.293,0.655-2.641,1.226-4.07,1.646l-84.486,24.849c-20.469,6.02-34.525,24.806-34.525,46.142V504.5h384.774v-84.254
	C448.387,398.91,434.331,380.124,413.862,374.103z"/>
<path style="fill:#D29B6E;" d="M199.887,313.969c16.841,8.996,35.939,14.176,56.113,14.176s39.272-5.18,56.113-14.176v-25.904
	H199.887V313.969z"/>
<path style="fill:#F5B97D;" d="M372.234,167.823H360.21V79.645H151.79v88.177h-12.024c-11.068,0-20.04,8.972-20.04,20.04
	c0,11.068,8.972,20.04,20.04,20.04h12.429c4.106,53.795,48.958,96.194,103.805,96.194s99.699-42.398,103.805-96.194h12.429
	c11.068,0,20.04-8.973,20.04-20.04C392.274,176.795,383.302,167.823,372.234,167.823z"/>
<path style="fill:#E3AA75;" d="M151.79,79.645v88.177h-10.88c-10.483,0-20.036,7.542-21.081,17.973
	c-1.202,11.996,8.186,22.108,19.937,22.108h12.429c4.106,53.795,48.958,96.194,103.805,96.194c5.484,0,10.83-0.534,16.083-1.351
	c-49.946-7.708-88.228-50.754-88.228-102.859v-39.29c0-15.373,14.184-26.717,29.205-23.446c13.084,2.849,26.664,5.116,40.548,6.504
	c0.8,0.08,1.601,0.12,2.396,0.12c7.516,0,14.658-3.525,19.227-9.609c2.75-3.662,4.349-7.962,4.729-12.378
	c23.844,7.77,54.679,22.047,80.118,47.857c0.095-0.038,0.037-0.014,0.131-0.052V79.647H151.79V79.645z"/>
<g>
	<path style="fill:#5A4650;" d="M135.758,171.595l17.905-2.107c8.074-0.95,14.159-7.793,14.159-15.922V79.645h-32.064V171.595z"/>
	<path style="fill:#5A4650;" d="M376.242,171.595l-17.905-2.107c-8.074-0.95-14.159-7.793-14.159-15.922V79.645h32.064V171.595z"/>
</g>
<path style="fill:#6E5A64;" d="M387.634,83.439C361.258,38.079,312.252,7.5,256,7.5c-54.965,0-102.983,29.214-129.765,72.863v2.349
	C153.729,95.196,203.12,114.438,256,119.725l-12.358-30.728c0,0,76.487,6.68,132.6,62.793L387.634,83.439z"/>
<path style="fill:#64505A;" d="M256,7.5c-54.965,0-102.983,29.214-129.765,72.863v2.349c6.06,2.751,13.265,5.843,21.255,9.029
	C170.209,55.653,210.296,31.548,256,31.548c59.813,0,110.047,41.214,124.166,96.695l7.468-44.804
	C361.258,38.079,312.252,7.5,256,7.5z"/>
<path style="fill:#6E5A64;" d="M256,400.29L256,400.29c-8.818,0-16.032,7.215-16.032,16.032v16.032
	c0,8.818,7.215,16.032,16.032,16.032l0,0c8.818,0,16.032-7.215,16.032-16.032v-16.032C272.032,407.505,264.818,400.29,256,400.29z"
	/>
<path d="M207.903,168.339c-4.142,0-7.5,3.358-7.5,7.5v8.016c0,4.142,3.358,7.5,7.5,7.5s7.5-3.358,7.5-7.5v-8.016
	C215.403,171.697,212.045,168.339,207.903,168.339z"/>
<path d="M304.097,168.339c-4.142,0-7.5,3.358-7.5,7.5v8.016c0,4.142,3.358,7.5,7.5,7.5s7.5-3.358,7.5-7.5v-8.016
	C311.597,171.697,308.239,168.339,304.097,168.339z"/>
<path d="M256,247.468c11.898,0,22.857-3.805,29.316-10.177c2.949-2.909,2.98-7.658,0.071-10.606
	c-2.91-2.949-7.659-2.98-10.606-0.071c-2.737,2.701-9.298,5.855-18.781,5.855c-9.483,0-16.043-3.154-18.781-5.855
	c-2.95-2.91-7.698-2.877-10.606,0.071c-2.909,2.948-2.877,7.697,0.071,10.606C233.143,243.663,244.102,247.468,256,247.468z"/>
<path d="M415.978,366.908l-80.557-23.693l9.253-7.792c45.206-38.068,71.133-93.796,71.133-152.896v-22.721
	C415.807,71.689,344.118,0,256,0C167.883,0,96.194,71.689,96.194,159.806v22.721c0,59.099,25.927,114.828,71.132,152.896
	l9.253,7.792l-80.557,23.693c-23.498,6.912-39.909,28.845-39.909,53.338V504.5c0,4.142,3.358,7.5,7.5,7.5s7.5-3.358,7.5-7.5v-84.254
	c0-5.486,1.132-10.794,3.191-15.666l45.566,39.871c5.331,4.665,8.389,11.402,8.389,18.486V504.5c0,4.142,3.358,7.5,7.5,7.5
	s7.5-3.358,7.5-7.5v-41.563c0-11.41-4.925-22.262-13.511-29.775l-47.083-41.198c4.76-4.908,10.763-8.657,17.59-10.665l84.486-24.849
	c1.792-0.527,3.503-1.219,5.137-2.037l51.576,43.432c-5.466,4.313-8.986,10.99-8.986,18.477v16.032
	c0,10.354,6.724,19.16,16.032,22.3V504.5c0,4.142,3.358,7.5,7.5,7.5c4.142,0,7.5-3.358,7.5-7.5v-49.845
	c9.308-3.139,16.032-11.946,16.032-22.3v-16.032c0-7.487-3.519-14.164-8.986-18.477l51.576-43.432
	c1.634,0.818,3.345,1.51,5.137,2.037l84.486,24.849c6.827,2.008,12.831,5.757,17.59,10.665l-47.082,41.198
	c-8.586,7.513-13.511,18.366-13.511,29.775V504.5c0,4.142,3.358,7.5,7.5,7.5s7.5-3.358,7.5-7.5v-41.563
	c0-7.084,3.058-13.822,8.389-18.486l45.566-39.87c2.059,4.872,3.19,10.18,3.19,15.666V504.5c0,4.142,3.358,7.5,7.5,7.5
	s7.5-3.358,7.5-7.5v-84.254C455.887,395.753,439.476,373.82,415.978,366.908z M400.807,182.527
	c0,54.665-23.981,106.211-65.795,141.422l-12.925,10.884c-1.573-2.551-2.474-5.529-2.474-8.65v-6.055c0-4.142-3.358-7.5-7.5-7.5
	s-7.5,3.358-7.5,7.5v6.055c0,6.727,2.196,13.102,5.959,18.346L256,390.485l-54.572-45.955c3.763-5.244,5.959-11.62,5.959-18.346
	V300.45c14.705,7.137,31.199,11.146,48.613,11.146c56.313,0,103.051-41.921,110.631-96.193h4.459
	c14.617,0,27.155-10.861,28.542-24.727c0.778-7.771-1.765-15.531-6.975-21.288c-2.405-2.657-5.287-4.784-8.454-6.313l5.378-59.157
	c7.225,17.206,11.224,36.087,11.224,55.887v22.722H400.807z M140.91,175.323h10.881c12.976,0,23.532-10.557,23.532-23.532v-18.705
	c0-4.142-3.358-7.5-7.5-7.5s-7.5,3.358-7.5,7.5v18.705c0,4.705-3.828,8.532-8.532,8.532h-8.532V98.132
	c28.085,11.267,68.972,24.754,111.996,29.056c2.606,0.259,5.168-0.861,6.744-2.959c1.576-2.099,1.94-4.868,0.961-7.302
	l-7.457-18.541c17.113,3.254,49.332,11.588,81.175,31.568v21.836c0,12.976,10.557,23.532,23.532,23.532h12.024
	c3.537,0,6.927,1.505,9.303,4.13c2.407,2.66,3.533,6.115,3.171,9.729c-0.629,6.292-6.611,11.221-13.617,11.221h-3.385v-0.439
	c0-4.141-3.356-7.499-7.497-7.5c0,0-0.002,0-0.003,0c-4.14,0-7.497,3.354-7.5,7.495c-0.039,53.286-43.421,96.638-96.706,96.638
	c-53.326,0-96.709-43.384-96.709-96.709c0-4.142-3.358-7.5-7.5-7.5s-7.5,3.358-7.5,7.5v0.516h-4.524
	c-3.537,0-6.927-1.505-9.303-4.131c-2.407-2.66-3.533-6.115-3.171-9.729C127.922,180.251,133.904,175.323,140.91,175.323z
	 M369.393,160.323h-9.184c-4.705,0-8.532-3.828-8.532-8.532v-11.479c6.189,4.706,12.262,9.918,18.111,15.665L369.393,160.323z
	 M256,15c50.334,0,94.745,25.82,120.704,64.904l-5.201,57.209c-55.888-48.815-124.16-55.321-127.209-55.587
	c-2.601-0.227-5.126,0.912-6.678,3.006c-1.552,2.094-1.905,4.845-0.933,7.264l7.624,18.957c-43.735-6.226-84.1-21.375-108.31-31.909
	C162.051,40.35,206.121,15,256,15z M111.194,182.527v-22.721c0-24.565,6.156-47.717,16.995-68.005
	c0.024,0.01,0.045,0.02,0.069,0.031v71.358c-8.631,4.115-14.93,12.266-15.892,21.859c-0.778,7.771,1.764,15.53,6.974,21.289
	c5.214,5.762,12.659,9.066,20.425,9.066h5.598c4.399,31.522,22.003,58.87,47.023,76.264v34.517c0,3.121-0.901,6.099-2.474,8.65
	l-12.925-10.884C135.175,288.738,111.194,237.191,111.194,182.527z M264.532,432.355c0,4.705-3.828,8.532-8.532,8.532
	c-4.704,0-8.532-3.828-8.532-8.532v-16.032c0-4.705,3.828-8.532,8.532-8.532c4.704,0,8.532,3.828,8.532,8.532V432.355z"/>
<path d="M199.887,159.291h16.032c4.142,0,7.5-3.358,7.5-7.5s-3.358-7.5-7.5-7.5h-16.032c-4.142,0-7.5,3.358-7.5,7.5
	S195.745,159.291,199.887,159.291z"/>
<path d="M296.081,159.291h16.032c4.142,0,7.5-3.358,7.5-7.5s-3.358-7.5-7.5-7.5h-16.032c-4.142,0-7.5,3.358-7.5,7.5
	S291.938,159.291,296.081,159.291z"/>
<g>
</g>
<g>
</g>
<g>
</g>
<g>
</g>
<g>
</g>
<g>
</g>
<g>
</g>
<g>
</g>
<g>
</g>
<g>
</g>
<g>
</g>
<g>
</g>
<g>
</g>
<g>
</g>
<g>
</g>
</svg>
