<?xml version="1.0" encoding="iso-8859-1"?>
<!-- Generator: Adobe Illustrator 19.0.0, SVG Export Plug-In . SVG Version: 6.00 Build 0)  -->
<svg version="1.1" id="Capa_1" xmlns="http://www.w3.org/2000/svg" xmlns:xlink="http://www.w3.org/1999/xlink" x="0px" y="0px"
	 viewBox="0 0 511.998 511.998" style="enable-background:new 0 0 511.998 511.998;" xml:space="preserve">
<g>
	
		<rect x="361.464" y="92.282" transform="matrix(0.7071 0.7071 -0.7071 0.7071 189.4997 -240.8684)" style="fill:#59D8FF;" width="48.08" height="32.06"/>
	
		<rect x="452.134" y="182.957" transform="matrix(0.7071 0.7071 -0.7071 0.7071 280.1729 -278.4238)" style="fill:#59D8FF;" width="48.08" height="32.06"/>
</g>
<rect x="414.792" y="137.614" transform="matrix(-0.7071 -0.7071 0.7071 -0.7071 626.816 566.9236)" style="fill:#C9C6CA;" width="32.06" height="32.06"/>
<g>
	
		<rect x="102.457" y="92.276" transform="matrix(-0.7071 0.7071 -0.7071 -0.7071 292.5276 95.4431)" style="fill:#59D8FF;" width="48.08" height="32.06"/>
	
		<rect x="11.794" y="182.95" transform="matrix(-0.7071 0.7071 -0.7071 -0.7071 201.8715 314.3423)" style="fill:#59D8FF;" width="48.08" height="32.06"/>
</g>
<rect x="65.139" y="137.619" transform="matrix(-0.7071 0.7071 -0.7071 -0.7071 247.2102 204.8998)" style="fill:#C9C6CA;" width="32.06" height="32.06"/>
<circle style="fill:#99E7FF;" cx="255.998" cy="328.128" r="104.11"/>
<path style="fill:#59D8FF;" d="M303.979,384.258c-57.5,0-104.114-46.613-104.114-104.114c0-16.354,3.876-31.766,10.596-45.536
	c-34.647,16.906-58.576,52.371-58.576,93.517c0,57.501,46.614,104.114,104.114,104.114c41.146,0,76.613-23.93,93.518-58.577
	C335.746,380.381,320.333,384.258,303.979,384.258z"/>
<path d="M255.998,216.503c-61.559,0-111.641,50.082-111.641,111.641s50.082,111.64,111.641,111.64s111.641-50.082,111.641-111.641
	S317.557,216.503,255.998,216.503z M339.451,376.826h-18.888c3.927-12.763,6.275-26.674,6.885-41.113h24.895
	C351.184,350.613,346.626,364.574,339.451,376.826z M159.653,335.712h24.895c0.61,14.439,2.958,28.35,6.885,41.113h-18.888
	C165.37,364.574,160.813,350.613,159.653,335.712z M172.463,279.599h18.927c-3.914,12.766-6.25,26.677-6.848,41.113h-24.901
	C160.779,305.816,165.313,291.855,172.463,279.599z M263.498,232.371c13.526,3.133,25.931,14.648,34.971,32.228h-34.971V232.371z
	 M248.498,232.389V264.6h-34.927c1.1-2.117,2.248-4.182,3.467-6.162C225.863,244.106,236.829,235.105,248.498,232.389z
	 M248.498,279.599v41.113h-48.944c0.659-14.644,3.259-28.613,7.6-41.113H248.498z M199.56,335.712h48.938v41.113h-41.297
	C202.846,364.329,200.232,350.361,199.56,335.712z M248.498,391.826v32.072c-11.669-2.716-22.635-11.717-31.46-26.049
	c-1.192-1.936-2.315-3.956-3.394-6.024h34.854V391.826z M263.498,423.898v-32.073h34.854c-1.079,2.068-2.202,4.088-3.394,6.024
	C286.133,412.181,275.168,421.182,263.498,423.898z M263.498,376.826v-41.113h48.938c-0.671,14.648-3.286,28.617-7.641,41.113
	H263.498z M327.464,320.712c-0.129-3.101-0.33-6.191-0.618-9.24c-0.391-4.124-4.052-7.143-8.174-6.76
	c-4.124,0.391-7.15,4.05-6.76,8.174c0.245,2.583,0.424,5.199,0.544,7.826h-48.958v-41.113h41.339
	c0.318,0.921,0.63,1.851,0.932,2.794c1.265,3.945,5.488,6.116,9.432,4.851c3.351-1.075,5.414-4.285,5.185-7.645h19.146
	c7.15,12.256,11.684,26.216,12.823,41.113L327.464,320.712L327.464,320.712z M328.747,264.599H315.06
	c-3.404-7.744-7.387-14.692-11.834-20.743C312.876,249.285,321.505,256.319,328.747,264.599z M208.792,243.844
	c-1.561,2.129-3.073,4.368-4.527,6.728c-2.703,4.389-5.133,9.09-7.312,14.027h-13.705
	C190.497,256.313,199.133,249.274,208.792,243.844z M183.372,391.826h13.642c2.164,4.886,4.574,9.541,7.251,13.889
	c1.453,2.36,2.966,4.599,4.527,6.728C199.188,407.043,190.594,400.052,183.372,391.826z M303.204,412.443
	c1.561-2.129,3.073-4.368,4.527-6.728c2.677-4.348,5.088-9.003,7.251-13.889h13.642
	C321.402,400.052,312.809,407.043,303.204,412.443z"/>
<path d="M120.5,192.71l11.334-11.334c2.929-2.929,2.929-7.678,0-10.606c-2.929-2.929-7.678-2.929-10.606,0l-6.033,6.033
	l-12.066-12.067l6.033-6.033c2.929-2.929,2.929-7.678,0-10.606l-6.033-6.033l6.398-6.398l6.033,6.033
	c1.464,1.464,3.384,2.197,5.303,2.197s3.839-0.732,5.303-2.197l34.009-34.009c2.929-2.929,2.929-7.678,0-10.606l-22.673-22.673
	c-1.406-1.407-3.314-2.197-5.303-2.197s-3.897,0.79-5.303,2.197l-34.009,34.01c-2.929,2.929-2.929,7.678,0,10.606l6.033,6.033
	l-6.398,6.398l-6.033-6.033c-2.928-2.93-7.677-2.929-10.606,0L53.21,148.098c-1.407,1.406-2.197,3.314-2.197,5.303
	s0.79,3.897,2.197,5.303l6.034,6.033l-6.398,6.398l-6.033-6.033c-2.929-2.929-7.678-2.929-10.606,0l-34.01,34.009
	c-2.929,2.929-2.929,7.678,0,10.606L24.87,232.39c1.406,1.407,3.314,2.197,5.303,2.197s3.897-0.79,5.303-2.197l34.01-34.01
	c2.929-2.929,2.929-7.678,0-10.606l-6.033-6.033l6.398-6.398l6.033,6.033c1.464,1.464,3.384,2.197,5.303,2.197
	s3.839-0.732,5.303-2.197l6.033-6.033l12.066,12.067l-6.033,6.033c-2.929,2.929-2.929,7.678,0,10.606
	c1.464,1.464,3.384,2.197,5.303,2.197s3.839-0.732,5.303-2.197l11.334-11.334c0.001-0.001,0.002-0.002,0.003-0.002
	S120.5,192.711,120.5,192.71z M132.2,90.319l12.066,12.066l-23.403,23.403l-12.066-12.066L132.2,90.319z M30.171,216.481
	l-12.066-12.067l23.403-23.403l12.066,12.066L30.171,216.481z M69.119,153.4l12.066-12.066L93.251,153.4l-12.066,12.066
	L69.119,153.4z"/>
<path d="M159.805,239.519c1.919,0,3.839-0.732,5.303-2.197c2.929-2.929,2.929-7.678,0-10.606l-21.937-21.937
	c-2.929-2.929-7.678-2.929-10.606,0c-2.929,2.929-2.929,7.678,0,10.606l21.937,21.937
	C155.966,238.786,157.885,239.519,159.805,239.519z"/>
<path d="M509.801,199.111l-34.01-34.009c-2.929-2.929-7.678-2.929-10.606,0l-6.033,6.033l-6.398-6.398l6.034-6.033
	c1.407-1.406,2.197-3.314,2.197-5.303s-0.79-3.897-2.197-5.303l-22.673-22.673c-2.929-2.929-7.678-2.929-10.606,0l-6.033,6.033
	l-6.398-6.398l6.033-6.033c2.929-2.929,2.929-7.678,0-10.606l-34.009-34.01c-1.406-1.407-3.314-2.197-5.303-2.197
	s-3.897,0.79-5.303,2.197l-22.673,22.673c-2.929,2.929-2.929,7.678,0,10.606l34.009,34.009c1.464,1.464,3.384,2.197,5.303,2.197
	s3.839-0.732,5.303-2.197l6.033-6.033l6.398,6.398l-6.033,6.033c-2.929,2.929-2.929,7.678,0,10.606l6.033,6.033l-12.066,12.067
	l-6.033-6.033c-2.928-2.929-7.677-2.929-10.606,0s-2.929,7.678,0,10.606l11.334,11.334c0.001,0.001,0.002,0.002,0.002,0.003
	s0.002,0.002,0.003,0.002l11.334,11.334c1.464,1.465,3.384,2.197,5.303,2.197s3.839-0.732,5.303-2.197
	c2.929-2.929,2.929-7.678,0-10.606l-6.033-6.033l12.066-12.067l6.033,6.033c1.464,1.465,3.384,2.197,5.303,2.197
	s3.839-0.732,5.303-2.197l6.033-6.033l6.398,6.398l-6.033,6.033c-2.929,2.929-2.929,7.678,0,10.606l34.01,34.01
	c1.406,1.407,3.314,2.197,5.303,2.197s3.897-0.79,5.303-2.197l22.673-22.673C512.731,206.788,512.731,202.039,509.801,199.111z
	 M367.73,102.386l12.066-12.066l23.403,23.403l-12.066,12.066L367.73,102.386z M418.744,153.4l12.066-12.066l12.066,12.066
	l-12.066,12.066L418.744,153.4z M481.825,216.481l-23.403-23.403l12.066-12.066l23.403,23.403L481.825,216.481z"/>
<path d="M368.825,204.779l-21.937,21.937c-2.929,2.929-2.929,7.678,0,10.606c1.464,1.464,3.384,2.197,5.303,2.197
	s3.839-0.732,5.303-2.197l21.937-21.937c2.929-2.929,2.929-7.678,0-10.606C376.503,201.85,371.753,201.85,368.825,204.779z"/>
<g>
</g>
<g>
</g>
<g>
</g>
<g>
</g>
<g>
</g>
<g>
</g>
<g>
</g>
<g>
</g>
<g>
</g>
<g>
</g>
<g>
</g>
<g>
</g>
<g>
</g>
<g>
</g>
<g>
</g>
</svg>
