<?xml version="1.0" encoding="iso-8859-1"?>
<!-- Generator: Adobe Illustrator 19.0.0, SVG Export Plug-In . SVG Version: 6.00 Build 0)  -->
<svg version="1.1" id="Capa_1" xmlns="http://www.w3.org/2000/svg" xmlns:xlink="http://www.w3.org/1999/xlink" x="0px" y="0px"
	 viewBox="0 0 512 512" style="enable-background:new 0 0 512 512;" xml:space="preserve">
<path style="fill:#EDEBED;" d="M472.28,284.503c-0.969-11.263-6.992-21.126-15.772-27.774l2.48-10.557
	c12.713-54.598,1.605-123.248-34.648-134.462c-6.29-1.946-12.151-2.436-17.589-1.654l0.758-5.329
	c1.914-11.803,0.289-18.937-3.829-29.065c-7.424-18.259-23.409-32.448-42.892-35.439c-8.458-1.298-16.765-0.639-24.523,1.65
	l-2.396-7.463C328.271,18.315,313.084,7.5,296.081,7.5c-16.053,0-29.933,9.488-36.326,23.15c-1.494,3.193-6.014,3.193-7.509,0
	C245.853,16.988,231.973,7.5,215.92,7.5c-16.987,0-32.166,10.803-37.779,26.878l-2.632,7.399
	c-5.035-1.458-10.309-2.213-15.702-2.213c-30.937,0-56.113,25.172-56.113,56.113c0,2.376,0.149,4.76,0.446,7.085l-0.016,0.149
	l0.985,7.12c-5.397-0.751-11.209-0.248-17.44,1.679c-36.065,11.151-47.283,79.547-34.789,133.957l2.368,10.736
	c-9.497,7.336-15.683,18.76-15.683,31.661c0,16.142,9.605,30.64,24.479,36.93c-5.527,8.032-8.447,17.437-8.447,27.199
	c0,23.786,17.37,43.538,40.081,47.373v5.423c0,26.175,14.438,50.905,38.259,61.755c16.845,7.672,34.282,7.135,49.483,1.096
	l0.944,5.966c2.646,17.5,17.935,30.695,35.564,30.695c14.208,0,26.523-8.256,32.401-20.222c1.449-2.95,5.895-2.95,7.344,0
	c5.877,11.967,18.192,20.222,32.401,20.222c17.629,0,32.918-13.195,35.564-30.695l0.997-5.944
	c16.713,6.619,36.142,6.603,54.422-3.69c21.014-11.832,33.268-34.836,33.268-58.952v-5.677c20.364-3.372,36.945-20.289,39.65-40.852
	c1.566-11.926-1.284-23.892-8.016-33.697C464.013,318.199,473.783,301.928,472.28,284.503z"/>
<g>
	<path style="fill:#DBD9DC;" d="M304.098,344.177h-96.194c-22.136,0-40.081-17.945-40.081-40.081v-96.194
		c0-22.136,17.945-40.081,40.081-40.081h96.194c22.136,0,40.081,17.945,40.081,40.081v96.194
		C344.178,326.233,326.233,344.177,304.098,344.177z"/>
	<path style="fill:#DBD9DC;" d="M202.213,55.581c2.215,0,4.431-0.916,6.012-2.712c2.928-3.323,2.607-8.388-0.712-11.316
		c-7.552-6.661-16.364-11.54-25.804-14.548c-1.395,2.322-2.65,4.746-3.567,7.374l-2.632,7.399c-0.145-0.042-0.298-0.054-0.444-0.095
		c8.022,2.263,15.498,6.294,21.848,11.895C198.432,54.92,200.326,55.581,202.213,55.581z"/>
	<path style="fill:#DBD9DC;" d="M259.513,30.65c-1.398,3.193-5.627,3.193-7.025,0c-1.085-2.478-2.471-4.759-3.988-6.93v467.229
		c1.556-2.067,2.96-4.268,4.065-6.671c1.355-2.95,5.515-2.95,6.871,0c1.104,2.403,2.509,4.604,4.065,6.671V23.719
		C261.984,25.891,260.598,28.171,259.513,30.65z"/>
	<path style="fill:#DBD9DC;" d="M79.646,231.952c-10.199,0-19.743,2.779-27.994,7.555c0.399,2.059,0.764,4.136,1.229,6.16
		l2.445,10.926c6.764-5.272,15.098-8.609,24.32-8.609c4.431,0,8.016-3.589,8.016-8.016S84.077,231.952,79.646,231.952z"/>
	<path style="fill:#DBD9DC;" d="M131.171,391.671c-8.079,5.64-17.582,8.619-27.477,8.619c-2.736,0-5.403-0.283-8.016-0.724v5.423
		c0,3.686,0.357,7.324,0.915,10.917c2.335,0.259,4.699,0.416,7.101,0.416c13.191,0,25.865-3.977,36.652-11.5
		c3.632-2.536,4.517-7.531,1.988-11.163C139.806,390.027,134.819,389.131,131.171,391.671z"/>
	<path style="fill:#DBD9DC;" d="M209.689,448.61c-7.064,8.735-16.143,15.236-26.266,19.246l0.941,5.949
		c0.522,3.45,1.657,6.664,3.082,9.712c13.42-4.922,25.434-13.363,34.705-24.824c2.787-3.444,2.255-8.49-1.19-11.273
		C217.509,444.63,212.46,445.174,209.689,448.61z"/>
	<path style="fill:#DBD9DC;" d="M105.1,109.957c5.701,0.761,10.97,2.699,15.856,5.895c15.546,10.17,23.838,32.451,27.795,46.148
		c-0.659,0.032,20.85,1.546,17.25,0.75c-3.774-15.42-13.877-45.632-36.207-60.281c-7.912-5.184-16.624-8.032-26.002-8.701
		c-0.021,0.639-0.097,1.265-0.097,1.909c0,2.376,0.149,4.76,0.446,7.084l-0.016,0.149L105.1,109.957z"/>
	<path style="fill:#DBD9DC;" d="M293.083,450.442c-3.296,2.955-3.578,8.02-0.626,11.32c8.838,9.872,19.938,17.204,32.129,21.687
		c1.409-3.028,2.534-6.219,3.052-9.643l0.997-5.944c0.082,0.032,0.167,0.053,0.249,0.085c-9.268-3.625-17.707-9.313-24.48-16.878
		C301.452,447.773,296.379,447.487,293.083,450.442z"/>
	<path style="fill:#DBD9DC;" d="M408.307,400.29c-7.155,0-14.085-1.607-20.443-4.602c1.236-1.769-12.818,11.492-12.447,11.228
		c9.76,5.679,21.473,9.406,32.89,9.406c2.409,0,4.78-0.159,7.121-0.419c0.536-3.521,0.895-7.079,0.895-10.683v-5.654
		C413.71,400.008,411.044,400.29,408.307,400.29z"/>
	<path style="fill:#DBD9DC;" d="M432.356,231.952c-4.431,0-8.016,3.589-8.016,8.016s3.585,8.016,8.016,8.016
		c9.146,0,17.485,3.2,24.238,8.377l2.394-10.189c0.51-2.192,0.918-4.438,1.352-6.671
		C452.091,234.728,442.55,231.952,432.356,231.952z"/>
	<path style="fill:#DBD9DC;" d="M296.512,88.652c2.821-22.609,18.997-40.715,40.006-46.839c-0.083,0.024-0.17,0.036-0.253,0.06
		l-2.396-7.463c-0.918-2.639-2.176-5.073-3.575-7.403c-26.149,8.361-46.144,31.218-49.689,59.664
		c-0.548,4.392,2.568,8.396,6.959,8.944C292.003,96.159,295.972,93.043,296.512,88.652z"/>
	<path style="fill:#DBD9DC;" d="M388.987,117.123c5.179-4.353,11.079-6.728,17.786-7.225l0.735-5.171
		c0.669-4.125,0.764-7.596,0.613-10.908c-11.059,0.25-20.942,3.875-29.452,11.03c-3.39,2.849-3.828,7.907-0.979,11.296
		C380.54,119.53,385.59,119.968,388.987,117.123z"/>
</g>
<path style="fill:#B7B2B8;" d="M304.098,320.129h-96.194c-8.854,0-16.032-7.178-16.032-16.032v-96.194
	c0-8.854,7.178-16.032,16.032-16.032h96.194c8.854,0,16.032,7.178,16.032,16.032v96.194
	C320.13,312.951,312.952,320.129,304.098,320.129z"/>
<g>
	<circle style="fill:#99E9DF;" cx="127.74" cy="256" r="16.03"/>
	<circle style="fill:#99E9DF;" cx="384.26" cy="256" r="16.03"/>
	<rect x="223.94" y="223.94" style="fill:#99E9DF;" width="64.13" height="64.13"/>
</g>
<path d="M256.001,344.694c-4.142,0-7.5,3.358-7.5,7.5v8.012c0,4.142,3.358,7.5,7.5,7.5s7.5-3.358,7.5-7.5v-8.012
	C263.501,348.052,260.143,344.694,256.001,344.694z"/>
<path d="M479.755,283.859c-1.015-11.757-6.595-22.274-14.959-30.012c7.64-28.232,9.048-60.928,3.684-88.406
	c-6.421-32.894-21.31-54.521-41.924-60.896c-3.798-1.175-7.505-1.902-11.106-2.214c0.23-2.207,0.358-4.428,0.358-6.653
	c0-35.076-28.537-63.613-63.613-63.613c-3.663,0-7.277,0.327-10.82,0.932C335.135,13.581,316.914,0,296.081,0
	C279.262,0,264.464,8.78,256,21.989C247.537,8.78,232.739,0,215.92,0c-20.831,0-39.051,13.578-45.292,32.992
	c-3.54-0.602-7.153-0.927-10.821-0.927c-35.077,0-63.613,28.537-63.613,63.613c0,2.211,0.118,4.432,0.346,6.629
	c-3.583,0.323-7.28,1.059-11.094,2.238c-20.614,6.375-35.503,28.002-41.924,60.896c-5.336,27.338-3.974,59.843,3.563,87.976
	c-9.236,8.685-15.02,21-15.02,34.647c0,16.309,8.26,31.2,21.601,39.878c-3.661,7.522-5.569,15.772-5.569,24.251
	c0,25.292,16.982,46.678,40.138,53.393c-0.034,0.907-0.057,1.814-0.057,2.719c0,39.496,32.133,71.629,71.629,71.629
	c5.977,0,11.866-0.77,17.557-2.211C181.637,497.297,199.093,512,219.928,512c14.986,0,28.229-7.606,36.073-19.16
	c7.844,11.553,21.086,19.16,36.073,19.16c20.835,0,38.292-14.703,42.563-34.275c5.691,1.441,11.58,2.211,17.557,2.211
	c39.497,0,71.629-32.133,71.629-71.629c0-0.898-0.022-1.799-0.056-2.699c20.651-6.038,36.793-24.279,39.644-45.933
	c1.444-10.969-0.352-21.974-5.082-31.728C472.884,318.485,481.292,301.68,479.755,283.859z M445.037,318.087
	c-2.075,0.878-3.645,2.642-4.277,4.804s-0.258,4.494,1.019,6.351c5.688,8.275,8.088,18.388,6.76,28.475
	c-2.331,17.71-16.853,32.298-34.53,34.687c-7.979,1.079-15.734-0.084-22.747-3.352c1.739-3.573,3.032-7.368,3.834-11.315
	c0.825-4.059-1.797-8.019-5.856-8.843c-4.06-0.823-8.019,1.797-8.843,5.856c-1.272,6.262-4.346,11.972-8.888,16.514
	c-12.703,12.703-33.373,12.703-46.076,0c-2.929-2.929-7.678-2.929-10.606,0c-2.929,2.929-2.929,7.678,0,10.607
	c9.276,9.276,21.46,13.914,33.645,13.914s24.369-4.638,33.645-13.914c0.138-0.138,0.27-0.281,0.406-0.421
	c7.955,4.161,16.83,6.332,25.875,6.332c0.137,0,0.274-0.006,0.41-0.007c0.002,0.177,0.017,0.354,0.017,0.531
	c0,31.225-25.404,56.629-56.629,56.629c-16.24,0-31.722-6.99-42.477-19.177c-2.741-3.106-7.48-3.402-10.586-0.661
	s-3.402,7.48-0.661,10.586c6.207,7.033,13.667,12.679,21.887,16.759c-1.96,13.86-13.894,24.558-28.285,24.558
	c-15.755,0-28.573-12.818-28.573-28.573v-76.154c0-4.142-3.358-7.5-7.5-7.5s-7.5,3.358-7.5,7.5v10.169
	c-10.154-10.861-24.591-17.668-40.597-17.668c-0.173,0-0.344,0.014-0.516,0.016v-8.548c0-18.943-11.223-36.072-28.592-43.638
	c-3.798-1.654-8.217,0.083-9.872,3.881c-1.654,3.797,0.083,8.217,3.88,9.871c11.896,5.182,19.583,16.914,19.583,29.886V387
	c-12.461,3.614-23.422,11.509-30.814,22.629c-2.293,3.449-1.355,8.105,2.094,10.398c3.45,2.293,8.104,1.355,10.398-2.094
	c7.558-11.37,20.207-18.158,33.838-18.158c22.385,0,40.597,18.212,40.597,40.597v28.056c0,15.755-12.818,28.573-28.573,28.573
	c-14.392,0-26.326-10.698-28.284-24.557c8.22-4.08,15.681-9.726,21.887-16.759c2.741-3.105,2.445-7.845-0.661-10.586
	c-3.105-2.741-7.846-2.445-10.586,0.661c-10.755,12.187-26.237,19.177-42.477,19.177c-31.226,0-56.629-25.404-56.629-56.629
	c0-0.176,0.015-0.353,0.016-0.529c0.167,0.001,0.332,0.013,0.5,0.013c10.992,0,21.623-3.204,30.743-9.267
	c3.45-2.293,4.387-6.948,2.094-10.398c-2.293-3.449-6.948-4.387-10.398-2.094c-6.652,4.422-14.411,6.759-22.439,6.759
	c-22.385,0-40.597-18.212-40.597-40.597c0-8.232,2.464-16.169,7.125-22.952c1.276-1.856,1.65-4.188,1.019-6.351
	c-0.632-2.162-2.202-3.927-4.277-4.804c-12.088-5.115-19.899-16.899-19.899-30.022c0-17.965,14.616-32.581,32.581-32.581
	c4.142,0,7.5-3.358,7.5-7.5s-3.358-7.5-7.5-7.5c-6.875,0-13.408,1.478-19.316,4.113c-5.866-24.812-6.698-52.658-2.086-76.282
	c5.235-26.821,16.766-44.841,31.634-49.44c9.453-2.923,17.302-2.203,24,2.2c13.707,9.014,19.416,30.731,21.457,41.407
	c-10.48,2.791-20.12,8.233-28.06,16.012c-2.959,2.899-3.008,7.647-0.109,10.606c2.898,2.958,7.647,3.008,10.606,0.109
	c9.14-8.955,21.222-13.887,34.02-13.887c14.716,0,28.5,6.649,37.699,17.953c-3.2,4.02-5.119,9.102-5.119,14.627v0.516h-24.564
	c-4.142,0-7.5,3.358-7.5,7.5s3.358,7.5,7.5,7.5h24.564V248.5h-34.329c-3.139-9.308-11.946-16.032-22.3-16.032
	c-12.976,0-23.532,10.557-23.532,23.532c0,12.975,10.557,23.532,23.532,23.532c10.354,0,19.161-6.724,22.3-16.032h34.329v25.081
	h-24.564c-4.142,0-7.5,3.358-7.5,7.5s3.358,7.5,7.5,7.5h24.564v0.516c0,12.976,10.557,23.532,23.532,23.532h96.193
	c12.976,0,23.532-10.557,23.532-23.532v-0.516h24.564c4.142,0,7.5-3.358,7.5-7.5s-3.358-7.5-7.5-7.5H327.63V263.5h34.329
	c3.139,9.308,11.946,16.032,22.3,16.032c12.976,0,23.532-10.557,23.532-23.532s-10.557-23.532-23.532-23.532
	c-10.354,0-19.161,6.724-22.3,16.032H327.63v-25.081h24.564c4.142,0,7.5-3.358,7.5-7.5s-3.358-7.5-7.5-7.5H327.63v-0.516
	c0-12.976-10.557-23.532-23.532-23.532h-96.193c-1.98,0-3.903,0.249-5.742,0.711c-12.019-15.575-30.559-24.76-50.371-24.76
	c-0.528,0-1.053,0.025-1.579,0.038c-2.331-12.572-9.353-39.464-28.056-51.793c-3.196-2.107-6.561-3.691-10.082-4.767
	c-0.667-2.437-0.88-5.978-0.88-8.122c0-26.805,21.808-48.613,48.613-48.613c13.177,0,25.512,5.186,34.733,14.601
	c2.899,2.96,7.647,3.009,10.606,0.111c2.959-2.898,3.009-7.647,0.111-10.606c-5.891-6.015-12.757-10.7-20.245-13.931
	C189.387,24.134,201.776,15,215.92,15c17.965,0,32.581,14.615,32.581,32.581v28.057c0,20.175-16.414,36.589-36.589,36.589
	c-11.888,0-23.08-5.812-29.938-15.548c-2.385-3.386-7.064-4.197-10.45-1.813c-3.387,2.385-4.198,7.064-1.813,10.451
	c9.664,13.719,25.439,21.91,42.201,21.91c14.289,0,27.237-5.842,36.589-15.26v47.841c0,4.142,3.358,7.5,7.5,7.5s7.5-3.358,7.5-7.5
	V47.581c0-17.965,14.616-32.581,32.581-32.581c14.15,0,26.544,9.142,30.913,22.257c-7.096,3.063-13.644,7.421-19.318,12.981
	c-2.958,2.899-3.007,7.647-0.108,10.606c2.898,2.958,7.647,3.007,10.606,0.108c9.14-8.956,21.222-13.888,34.02-13.888
	c26.806,0,48.613,21.808,48.613,48.613c0,2.728-0.229,5.447-0.677,8.117c-5.563,1.653-10.718,4.54-15.344,8.683
	c-3.086,2.763-3.347,7.505-0.583,10.591c2.763,3.085,7.505,3.346,10.59,0.583c7.388-6.616,16.327-8.179,27.33-4.776
	c14.868,4.599,26.398,22.619,31.634,49.44c4.64,23.768,3.766,51.808-2.197,76.733c-6.403-2.921-13.524-4.564-20.984-4.564
	c-4.142,0-7.5,3.358-7.5,7.5s3.358,7.5,7.5,7.5c17.761,0,32.798,13.03,34.234,29.664
	C466.034,299.328,458.088,312.565,445.037,318.087z M312.63,304.097c0,4.705-3.828,8.532-8.532,8.532h-96.193
	c-4.705,0-8.532-3.828-8.532-8.532v-96.193c0-4.705,3.828-8.532,8.532-8.532h96.193c4.705,0,8.532,3.828,8.532,8.532V304.097z
	 M136.275,256c0,4.705-3.828,8.532-8.533,8.532c-4.705,0-8.532-3.828-8.532-8.532s3.828-8.532,8.532-8.532
	C132.448,247.468,136.275,251.295,136.275,256z M375.726,256c0-4.705,3.828-8.532,8.533-8.532s8.532,3.828,8.532,8.532
	c0,4.704-3.828,8.532-8.532,8.532C379.554,264.532,375.726,260.705,375.726,256z"/>
<path d="M300.545,72.453c-3.968-1.181-8.146,1.079-9.328,5.049c-1.749,5.878-2.636,11.993-2.636,18.176c0,4.142,3.358,7.5,7.5,7.5
	s7.5-3.358,7.5-7.5c0-4.733,0.677-9.408,2.013-13.897C306.776,77.811,304.515,73.635,300.545,72.453z"/>
<path d="M288.065,216.436h-64.129c-4.142,0-7.5,3.358-7.5,7.5v64.129c0,4.142,3.358,7.5,7.5,7.5h64.129c4.142,0,7.5-3.358,7.5-7.5
	v-64.129C295.565,219.793,292.207,216.436,288.065,216.436z M280.565,280.564h-49.129v-49.129h49.129V280.564z"/>
<g>
</g>
<g>
</g>
<g>
</g>
<g>
</g>
<g>
</g>
<g>
</g>
<g>
</g>
<g>
</g>
<g>
</g>
<g>
</g>
<g>
</g>
<g>
</g>
<g>
</g>
<g>
</g>
<g>
</g>
</svg>
