<?xml version="1.0" encoding="iso-8859-1"?>
<!-- Generator: Adobe Illustrator 19.0.0, SVG Export Plug-In . SVG Version: 6.00 Build 0)  -->
<svg version="1.1" id="Layer_1" xmlns="http://www.w3.org/2000/svg" xmlns:xlink="http://www.w3.org/1999/xlink" x="0px" y="0px"
	 viewBox="0 0 511.999 511.999" style="enable-background:new 0 0 511.999 511.999;" xml:space="preserve">
<polygon style="fill:#CCCCCC;" points="302.308,470.313 209.679,470.313 217.435,438.006 224.927,406.838 287.072,406.838 
	294.552,438.006 "/>
<polygon style="fill:#999999;" points="294.552,438.006 217.435,438.006 224.927,406.838 254.389,374.746 287.072,406.838 "/>
<path style="fill:#CCCCCC;" d="M503.007,73.841v300.305c0,18.054-14.637,32.691-32.691,32.691H41.683
	c-18.054,0-32.691-14.637-32.691-32.691V73.841c0-18.054,14.637-32.691,32.691-32.691h428.634
	C488.37,41.151,503.007,55.788,503.007,73.841z"/>
<path style="fill:#E6E6E6;" d="M503.007,73.843v300.305c0,18.054-14.637,32.691-32.691,32.691H207.701L310.232,41.152h160.084
	C488.37,41.152,503.007,55.789,503.007,73.843z"/>
<rect x="8.992" y="85.999" style="fill:#9BD7F4;" width="494.015" height="275.994"/>
<polygon style="fill:#C8EDFC;" points="503.007,85.998 503.007,361.992 220.276,361.992 297.657,85.998 "/>
<path d="M470.316,32.427H41.683C18.7,32.427,0,51.127,0,74.111v40.433c0,4.965,4.024,8.991,8.991,8.991s8.991-4.025,8.991-8.991
	V74.111c0-13.069,10.632-23.701,23.701-23.701h428.634c13.069,0,23.701,10.632,23.701,23.701v267.002
	c0,4.965,4.024,8.991,8.991,8.991s8.991-4.025,8.991-8.991V74.111C512,51.127,493.3,32.427,470.316,32.427z"/>
<path d="M503.009,365.419c-4.967,0-8.991,4.025-8.991,8.991c0,13.069-10.632,23.701-23.701,23.701H41.683
	c-13.069,0.001-23.701-10.632-23.701-23.701V149.308c0-4.965-4.024-8.991-8.991-8.991S0,144.343,0,149.308V374.41
	c0,22.984,18.7,41.684,41.683,41.684h171.839l-10.923,45.496h-42.503c-4.967,0-8.991,4.025-8.991,8.991s4.024,8.991,8.991,8.991
	h49.59h92.623H351.9c4.967,0,8.991-4.025,8.991-8.991s-4.024-8.991-8.991-8.991h-42.503l-10.922-45.496h171.839
	c22.984,0,41.683-18.698,41.683-41.683C512,369.445,507.975,365.419,503.009,365.419z M290.906,461.589h-69.813l10.923-45.496
	h47.968L290.906,461.589z"/>
<path d="M39.35,371.245H472.65c4.967,0,8.991-4.025,8.991-8.991c0-4.965-4.024-8.991-8.991-8.991H39.35
	c-4.967,0-8.991,4.025-8.991,8.991C30.359,367.22,34.384,371.245,39.35,371.245z"/>
<path d="M481.641,86.267c0-4.965-4.024-8.991-8.991-8.991H39.35c-4.967,0-8.991,4.025-8.991,8.991c0,4.965,4.024,8.991,8.991,8.991
	H472.65C477.617,95.258,481.641,91.232,481.641,86.267z"/>
<path d="M246.111,146.939c-4.967,0-8.991,4.025-8.991,8.991v136.66c0,4.965,4.024,8.991,8.991,8.991
	c4.967,0,8.991-4.025,8.991-8.991v-34.793h21.281c18.218,0,33.041-14.822,33.041-33.041v-44.778
	c0-18.219-14.822-33.041-33.041-33.041h-30.271V146.939z M291.44,179.98v44.778c0,8.304-6.755,15.059-15.059,15.059H255.1v-74.895
	h21.281C284.685,164.921,291.44,171.676,291.44,179.98z"/>
<path d="M167.671,225.121c1.234,4.808,6.131,7.711,10.944,6.473c4.809-1.235,7.708-6.134,6.473-10.944l-17.181-66.955
	c-1.021-3.976-4.604-6.756-8.709-6.756s-7.688,2.78-8.709,6.756l-35.068,136.66c-1.234,4.809,1.665,9.709,6.473,10.944
	c0.75,0.192,1.501,0.284,2.241,0.284c4.007,0,7.661-2.698,8.703-6.759l5.537-21.579h41.643l5.537,21.579
	c1.042,4.06,4.696,6.759,8.703,6.759c0.738,0,1.491-0.092,2.241-0.284c4.809-1.235,7.708-6.133,6.473-10.944l-11.092-43.23
	c-1.234-4.808-6.128-7.708-10.944-6.475c-4.809,1.235-7.708,6.133-6.473,10.944l0.941,3.669H142.99l16.207-63.161L167.671,225.121z"
	/>
<path d="M387.868,164.921c4.967,0,8.991-4.025,8.991-8.991s-4.024-8.991-8.991-8.991h-49.15c-4.967,0-8.991,4.025-8.991,8.991
	s4.024,8.991,8.991,8.991h15.584v118.679h-15.584c-4.967,0-8.991,4.025-8.991,8.991s4.024,8.991,8.991,8.991h49.15
	c4.967,0,8.991-4.025,8.991-8.991s-4.024-8.991-8.991-8.991h-15.584V164.921H387.868z"/>
<g>
</g>
<g>
</g>
<g>
</g>
<g>
</g>
<g>
</g>
<g>
</g>
<g>
</g>
<g>
</g>
<g>
</g>
<g>
</g>
<g>
</g>
<g>
</g>
<g>
</g>
<g>
</g>
<g>
</g>
</svg>
