<?xml version="1.0" encoding="iso-8859-1"?>
<!-- Generator: Adobe Illustrator 19.0.0, SVG Export Plug-In . SVG Version: 6.00 Build 0)  -->
<svg xmlns="http://www.w3.org/2000/svg" xmlns:xlink="http://www.w3.org/1999/xlink" version="1.1" id="Layer_1" x="0px" y="0px" viewBox="0 0 512 512" style="enable-background:new 0 0 512 512;" xml:space="preserve" width="512" height="512">
<g>
	<g>
		<g>
			<g>
				<g>
					<polygon style="fill:#A7D16C;" points="256,369.331 192.789,339.271 192.789,261.305 256,291.365      "/>
				</g>
			</g>
			<g>
				<g>
					<polygon style="fill:#87B45F;" points="256,369.331 319.211,339.271 319.211,261.305 256,291.365      "/>
				</g>
			</g>
			<g>
				<g>
					<polygon style="fill:#B4E173;" points="319.211,261.305 256,231.244 192.789,261.305 256,291.365      "/>
				</g>
			</g>
		</g>
		<g>
			<g>
				<g>
					<g>
						<polygon style="fill:#A7D16C;" points="70.711,458.279 7.5,428.219 7.5,350.253 70.711,380.314       "/>
					</g>
				</g>
				<g>
					<g>
						<polygon style="fill:#87B45F;" points="70.711,458.279 133.921,428.219 133.921,350.253 70.711,380.314       "/>
					</g>
				</g>
				<g>
					<g>
						<polyline style="fill:#B4E173;" points="133.921,350.253 70.711,320.192 7.5,350.253 70.711,380.314 137.935,350.253               "/>
					</g>
				</g>
			</g>
			<g>
				<g>
					<g>
						<polygon style="fill:#A7D16C;" points="441.289,458.279 378.079,428.219 378.079,350.253 441.289,380.314       "/>
					</g>
				</g>
				<g>
					<g>
						<polygon style="fill:#87B45F;" points="441.289,458.279 504.5,428.219 504.5,350.253 441.289,380.314       "/>
					</g>
				</g>
				<g>
					<g>
						<polygon style="fill:#B4E173;" points="504.5,350.253 441.289,320.192 378.079,350.253 441.289,380.314       "/>
					</g>
				</g>
			</g>
		</g>
		<g>
			<g>
				<g>
					<polygon style="fill:#A7D16C;" points="256,191.817 192.789,161.757 192.789,83.791 256,113.851      "/>
				</g>
			</g>
			<g>
				<g>
					<polygon style="fill:#87B45F;" points="256,191.817 319.211,161.757 319.211,83.791 256,113.851      "/>
				</g>
			</g>
			<g>
				<g>
					<polygon style="fill:#B4E173;" points="319.211,83.791 256,53.73 192.789,83.791 256,113.851      "/>
				</g>
			</g>
		</g>
	</g>
	<g>
		<path d="M508.506,343.912c-0.127-0.08-0.261-0.142-0.391-0.214c-0.118-0.075-0.245-0.149-0.393-0.219l-63.21-30.061    c-2.038-0.969-4.404-0.969-6.442,0l-63.211,30.061c-0.047,0.022-0.078,0.048-0.123,0.071c-0.224,0.112-0.448,0.226-0.662,0.362    c-1.249,0.789-2.204,1.921-2.8,3.224l-44.562-21.192v-64.639c0-2.573-1.319-4.966-3.494-6.341    c-0.056-0.035-0.115-0.06-0.172-0.094c-0.17-0.111-0.372-0.224-0.613-0.338l-0.054-0.026c0,0-0.001,0-0.001-0.001L263.5,226.506    v-29.951l58.932-28.026c2.614-1.243,4.279-3.879,4.279-6.773V83.791c0-2.573-1.319-4.966-3.494-6.341    c-0.056-0.035-0.115-0.06-0.172-0.094c-0.17-0.111-0.372-0.224-0.613-0.338l-0.051-0.024c-0.002-0.001-0.004-0.002-0.006-0.003    l-63.153-30.034c-2.038-0.97-4.404-0.97-6.442,0l-63.154,30.034c-0.001,0.001-0.003,0.001-0.004,0.002l-0.053,0.025    c-0.241,0.115-0.443,0.227-0.613,0.338c-0.056,0.034-0.116,0.059-0.172,0.094c-2.175,1.375-3.494,3.768-3.494,6.341v14.214    c0,4.142,3.358,7.5,7.5,7.5s7.5-3.358,7.5-7.5v-2.342l48.21,22.927v61.356l-48.21-22.927v-28.014c0-4.142-3.358-7.5-7.5-7.5    s-7.5,3.358-7.5,7.5v32.752c0,2.894,1.665,5.53,4.279,6.773l58.932,28.026v29.951l-58.873,27.998    c-0.003,0.001-0.006,0.003-0.009,0.004l-0.05,0.024c-0.241,0.115-0.442,0.227-0.613,0.338c-0.056,0.034-0.116,0.059-0.172,0.094    c-2.175,1.375-3.494,3.768-3.494,6.341v65.339l-44.321,21.077c-0.557-1.551-1.608-2.903-3.042-3.809    c-0.144-0.091-0.296-0.162-0.445-0.243c-0.1-0.065-0.212-0.129-0.34-0.19l-63.211-30.061c-2.038-0.969-4.404-0.969-6.442,0    l-63.21,30.061c-0.242,0.115-0.444,0.228-0.615,0.34c-0.056,0.033-0.115,0.058-0.17,0.093C1.319,345.286,0,347.68,0,350.253    v77.966c0,2.895,1.665,5.53,4.279,6.773l63.21,30.061c2.014,0.959,4.428,0.955,6.442,0l63.211-30.061    c2.614-1.243,4.279-3.879,4.279-6.773v-64.102l44.782-21.296c0.742,1.377,1.896,2.525,3.365,3.224l63.21,30.061    c2.014,0.959,4.428,0.955,6.442,0l63.21-30.061c1.667-0.793,2.943-2.156,3.652-3.788l44.495,21.16v64.802    c0,2.895,1.665,5.53,4.279,6.773l63.211,30.061c2.014,0.959,4.428,0.955,6.442,0l63.21-30.061    c2.614-1.243,4.279-3.879,4.279-6.773v-77.966C512,347.68,510.681,345.286,508.506,343.912    C508.379,343.832,510.681,345.286,508.506,343.912z M311.71,157.018l-48.21,22.927V118.59l48.21-22.927V157.018z M210.253,83.791    L256,62.035l45.747,21.756L256,105.547L210.253,83.791z M256,264.664c4.142,0,7.5-3.357,7.5-7.5v-14.048l38.247,18.189L256,283.06    l-45.747-21.755l38.247-18.189v14.048C248.5,261.306,251.858,264.664,256,264.664z M70.71,328.497l45.747,21.756L70.71,372.008    l-45.746-21.755L70.71,328.497z M15,362.125l48.21,22.927v61.355L15,423.48V362.125z M126.421,423.48L78.21,446.407v-61.355    l48.211-22.927V423.48z M231.167,313.132c-1.778-3.74-6.252-5.331-9.994-3.553l-20.884,9.932v-46.334l48.21,22.927v61.355    l-46.54-22.132l25.656-12.201C231.356,321.346,232.947,316.872,231.167,313.132z M263.5,357.459v-61.355l48.21-22.927v45.634    l-19.412-9.231c-3.742-1.777-8.216-0.188-9.994,3.553c-1.779,3.74-0.189,8.215,3.552,9.994l24.919,11.851L263.5,357.459z     M385.579,363.815c0.278-0.378,0.536-0.776,0.745-1.216c0.016-0.033,0.026-0.067,0.042-0.1l11.937,5.677    c3.741,1.777,8.215,0.188,9.994-3.553c1.779-3.74,0.188-8.215-3.552-9.994l-9.202-4.376l45.747-21.756l45.746,21.756    l-45.747,21.755l-8.744-4.158c-3.742-1.778-8.215-0.188-9.994,3.553c-1.778,3.74-0.188,8.215,3.553,9.994l7.686,3.654v61.355    l-48.211-22.927V363.815z M497,423.48l-48.21,22.927v-61.355L497,362.125V423.48z"/>
		<circle cx="38.213" cy="404.266" r="7.504"/>
		<circle cx="256" cy="83.791" r="7.504"/>
		<circle cx="473.94" cy="404.266" r="7.504"/>
	</g>
</g>















</svg>
