<?xml version="1.0" encoding="iso-8859-1"?>
<!-- Generator: Adobe Illustrator 19.0.0, SVG Export Plug-In . SVG Version: 6.00 Build 0)  -->
<svg version="1.1" id="Capa_1" xmlns="http://www.w3.org/2000/svg" xmlns:xlink="http://www.w3.org/1999/xlink" x="0px" y="0px"
	 viewBox="0 0 512 512" style="enable-background:new 0 0 512 512;" xml:space="preserve">
<g>
	<path style="fill:#DFEAEF;" d="M27.411,321.361v130.722c0,28.947,102.338,52.413,228.579,52.413s228.579-23.466,228.579-52.413
		V321.361H27.411z"/>
	<path style="fill:#DFEAEF;" d="M27.411,190.639v130.722c0,28.947,102.338,52.413,228.579,52.413s228.579-23.466,228.579-52.413
		V190.639H27.411z"/>
	<path style="fill:#DFEAEF;" d="M27.411,59.917v130.722c0,28.947,102.338,52.413,228.579,52.413s228.579-23.466,228.579-52.413
		V59.917H27.411z"/>
</g>
<g>
	<path style="fill:#BFCFD6;" d="M432.341,59.917v130.722c0,26.921-88.524,49.098-202.465,52.07
		c8.572,0.224,17.282,0.342,26.114,0.342c126.241,0,228.579-23.466,228.579-52.413V59.917H432.341z"/>
	<path style="fill:#BFCFD6;" d="M432.341,190.639v130.722c0,26.921-88.524,49.098-202.465,52.07
		c8.572,0.224,17.282,0.342,26.114,0.342c126.241,0,228.579-23.466,228.579-52.413V190.639H432.341z"/>
	<path style="fill:#BFCFD6;" d="M432.341,321.865v130.722c0,26.921-88.524,49.098-202.465,52.07
		c8.572,0.224,17.282,0.342,26.114,0.342c126.241,0,228.579-23.466,228.579-52.413V321.865H432.341z"/>
</g>
<ellipse style="fill:#9EBECC;" cx="255.99" cy="59.917" rx="228.58" ry="52.41"/>
<path style="fill:#86AEBC;" d="M255.99,7.504c-8.832,0-17.543,0.119-26.114,0.342c113.94,2.972,202.465,25.149,202.465,52.07
	s-88.525,49.098-202.465,52.07c8.572,0.224,17.282,0.342,26.114,0.342c126.241,0,228.579-23.466,228.579-52.413
	C484.569,30.97,382.231,7.504,255.99,7.504z"/>
<g>
	<circle style="fill:#FC9F3D;" cx="394.82" cy="165.2" r="21.751"/>
	<circle style="fill:#FC9F3D;" cx="394.82" cy="294.2" r="21.751"/>
	<circle style="fill:#FC9F3D;" cx="394.82" cy="423.4" r="21.751"/>
</g>
<path style="fill:#ED852F;" d="M410.197,438.777c8.494-8.494,8.494-22.266,0-30.76l-30.76,30.76
	C387.93,447.272,401.702,447.272,410.197,438.777z"/>
<path d="M330.487,168.025c-23.872,1.92-48.936,2.894-74.497,2.894c-60.941,0-117.791-5.466-160.078-15.391
	c-4.026-0.94-8.073,1.556-9.021,5.591c-0.947,4.036,1.557,8.074,5.591,9.021c43.378,10.181,101.446,15.787,163.508,15.787
	c25.96,0,51.43-0.99,75.701-2.943c4.131-0.332,7.21-3.951,6.878-8.082C338.237,170.773,334.608,167.687,330.487,168.025z"/>
<path d="M330.487,296.638c-23.872,1.92-48.936,2.894-74.497,2.894c-60.941,0-117.791-5.466-160.078-15.391
	c-4.026-0.943-8.073,1.556-9.021,5.591c-0.947,4.036,1.557,8.074,5.591,9.021c43.378,10.181,101.446,15.787,163.508,15.787
	c25.96,0,51.43-0.99,75.701-2.943c4.131-0.332,7.21-3.951,6.878-8.082C338.237,299.385,334.608,296.302,330.487,296.638z"/>
<path d="M492.036,59.031c-1.582-35.887-98.66-49.916-140.601-54.298C338.494,3.381,324.931,2.3,311.12,1.522
	C293.177,0.512,274.628,0,255.99,0c-47.689,0-93.486,3.316-132.44,9.591c-4.092,0.659-6.875,4.51-6.215,8.602
	c0.659,4.091,4.515,6.877,8.602,6.215c38.179-6.149,83.15-9.4,130.054-9.4c18.358,0,36.622,0.504,54.286,1.499
	c13.572,0.764,26.895,1.825,39.6,3.152c38.81,4.055,71.621,10.495,94.885,18.624c30.746,10.744,32.304,19.906,32.304,21.633
	c0,5.843-12.874,18.684-61.122,29.747c-1.333,0.306-2.679,0.607-4.039,0.904c-42.155,9.205-97.298,14.258-155.914,14.258
	s-113.759-5.054-155.914-14.258c-1.36-0.297-2.706-0.598-4.039-0.904c-47.81-10.962-60.877-23.665-61.111-29.58
	c0.001-0.056,0.008-0.11,0.008-0.165c0-0.053-0.007-0.104-0.008-0.157c0.123-3.532,4.399-8.034,11.792-12.387
	c9.328-5.493,23.006-10.574,40.656-15.102c4.014-1.03,6.433-5.119,5.403-9.134c-1.03-4.013-5.115-6.43-9.134-5.403
	c-42.293,10.85-63.738,25.044-63.738,42.184v130.722v130.721v130.722c0,18.373,24.486,33.303,72.777,44.376
	C136.39,506.481,194.387,512,255.99,512s119.601-5.519,163.306-15.541c48.291-11.073,72.777-26.003,72.777-44.376V321.361V190.639
	V60.304c0.007-0.129,0.02-0.257,0.02-0.387C492.093,59.617,492.072,59.322,492.036,59.031z M477.065,452.083
	c0,5.843-12.874,18.684-61.122,29.747c-42.64,9.777-99.445,15.161-159.953,15.161s-117.313-5.384-159.953-15.161
	c-48.248-11.064-61.122-23.904-61.122-29.747V344.171c0.164,0.113,0.345,0.224,0.512,0.337c0.407,0.275,0.824,0.548,1.247,0.82
	c0.342,0.22,0.687,0.44,1.039,0.659c0.441,0.274,0.895,0.545,1.353,0.816c0.36,0.213,0.717,0.427,1.087,0.638
	c0.483,0.276,0.982,0.55,1.482,0.824c0.37,0.202,0.733,0.405,1.112,0.606c0.545,0.289,1.11,0.574,1.674,0.86
	c0.358,0.181,0.706,0.364,1.072,0.544c0.699,0.344,1.422,0.684,2.149,1.024c0.254,0.118,0.495,0.239,0.752,0.357
	c0.987,0.453,2.001,0.902,3.039,1.347c0.324,0.139,0.665,0.275,0.995,0.414c0.733,0.308,1.467,0.615,2.225,0.919
	c0.431,0.173,0.878,0.343,1.317,0.515c0.68,0.266,1.36,0.532,2.059,0.795c0.484,0.182,0.981,0.362,1.474,0.542
	c0.68,0.249,1.363,0.498,2.06,0.745c0.519,0.183,1.05,0.365,1.579,0.547c0.699,0.24,1.403,0.48,2.12,0.718
	c0.545,0.181,1.098,0.361,1.653,0.541c0.726,0.235,1.46,0.469,2.203,0.701c0.568,0.178,1.14,0.355,1.718,0.531
	c0.76,0.232,1.532,0.462,2.309,0.691c0.583,0.172,1.165,0.343,1.758,0.514c0.806,0.232,1.627,0.461,2.451,0.69
	c0.587,0.163,1.17,0.327,1.766,0.488c0.875,0.237,1.769,0.472,2.664,0.706c0.567,0.149,1.128,0.299,1.703,0.446
	c1.005,0.258,2.032,0.512,3.06,0.766c0.489,0.121,0.967,0.243,1.461,0.363c1.534,0.372,3.09,0.74,4.675,1.103
	c43.708,10.021,101.704,15.541,163.307,15.541s119.6-5.52,163.307-15.541c1.585-0.363,3.141-0.732,4.675-1.103
	c0.495-0.12,0.974-0.242,1.463-0.363c1.027-0.254,2.053-0.507,3.057-0.765c0.577-0.148,1.138-0.298,1.707-0.447
	c0.893-0.234,1.786-0.469,2.66-0.706c0.596-0.162,1.179-0.325,1.766-0.488c0.824-0.229,1.645-0.458,2.451-0.69
	c0.592-0.17,1.175-0.342,1.758-0.514c0.777-0.229,1.549-0.459,2.309-0.691c0.578-0.176,1.15-0.353,1.719-0.531
	c0.742-0.232,1.475-0.466,2.201-0.7c0.556-0.18,1.11-0.36,1.656-0.542c0.715-0.238,1.419-0.477,2.117-0.717
	c0.529-0.182,1.06-0.364,1.579-0.547c0.698-0.246,1.38-0.495,2.06-0.745c0.493-0.181,0.99-0.36,1.474-0.542
	c0.699-0.263,1.379-0.529,2.059-0.795c0.439-0.172,0.886-0.342,1.317-0.515c0.755-0.303,1.488-0.61,2.219-0.917
	c0.332-0.139,0.675-0.277,1.002-0.417c1.038-0.445,2.051-0.894,3.038-1.346c0.257-0.118,0.499-0.238,0.752-0.357
	c0.727-0.34,1.45-0.68,2.149-1.024c0.366-0.18,0.714-0.363,1.072-0.544c0.564-0.286,1.129-0.571,1.674-0.86
	c0.379-0.201,0.743-0.404,1.113-0.607c0.499-0.273,0.998-0.547,1.48-0.823c0.371-0.212,0.729-0.426,1.09-0.64
	c0.457-0.271,0.91-0.542,1.351-0.815c0.353-0.219,0.697-0.439,1.04-0.659c0.423-0.272,0.84-0.546,1.247-0.82
	c0.167-0.113,0.347-0.224,0.512-0.337v107.912H477.065z M477.065,321.361c0,0.548-0.113,1.157-0.358,1.821
	c-2.367,6.415-17.039,17.9-60.764,27.927c-42.64,9.777-99.446,15.162-159.953,15.162s-117.313-5.385-159.953-15.162
	c-43.725-10.027-58.397-21.512-60.764-27.927c-0.245-0.663-0.358-1.273-0.358-1.821V213.448c0.159,0.109,0.333,0.216,0.494,0.325
	c0.418,0.282,0.846,0.563,1.281,0.843c0.334,0.215,0.669,0.429,1.013,0.642c0.449,0.278,0.911,0.555,1.377,0.831
	c0.353,0.209,0.704,0.419,1.067,0.626c0.488,0.279,0.992,0.555,1.497,0.832c0.366,0.2,0.726,0.401,1.101,0.6
	c0.543,0.288,1.106,0.573,1.669,0.857c0.362,0.183,0.714,0.368,1.083,0.55c0.688,0.339,1.4,0.673,2.115,1.008
	c0.264,0.124,0.517,0.249,0.785,0.372c0.985,0.452,1.997,0.9,3.032,1.344c0.342,0.147,0.703,0.291,1.051,0.437
	c0.714,0.299,1.428,0.599,2.165,0.895c0.447,0.179,0.911,0.356,1.366,0.534c0.663,0.259,1.326,0.519,2.008,0.775
	c0.497,0.187,1.009,0.372,1.516,0.558c0.666,0.244,1.333,0.487,2.016,0.729c0.531,0.188,1.074,0.374,1.615,0.56
	c0.687,0.236,1.378,0.471,2.081,0.705c0.556,0.185,1.12,0.368,1.686,0.551c0.717,0.232,1.441,0.462,2.174,0.692
	c0.575,0.18,1.154,0.359,1.739,0.537c0.754,0.23,1.518,0.458,2.288,0.684c0.588,0.173,1.176,0.347,1.773,0.518
	c0.802,0.23,1.618,0.459,2.438,0.686c0.591,0.164,1.179,0.329,1.779,0.492c0.868,0.235,1.754,0.468,2.641,0.701
	c0.575,0.151,1.143,0.303,1.726,0.452c1,0.257,2.023,0.509,3.047,0.762c0.492,0.121,0.973,0.245,1.47,0.365
	c1.534,0.372,3.09,0.74,4.675,1.103c43.708,10.021,101.705,15.541,163.307,15.541s119.6-5.52,163.307-15.541
	c1.585-0.363,3.141-0.732,4.675-1.103c0.498-0.121,0.98-0.244,1.472-0.365c1.023-0.252,2.044-0.505,3.043-0.761
	c0.584-0.15,1.154-0.302,1.73-0.453c0.885-0.232,1.77-0.464,2.637-0.7c0.6-0.163,1.188-0.328,1.779-0.492
	c0.819-0.228,1.636-0.456,2.438-0.686c0.598-0.172,1.186-0.345,1.773-0.518c0.77-0.227,1.535-0.455,2.288-0.684
	c0.585-0.178,1.164-0.358,1.74-0.538c0.732-0.229,1.456-0.459,2.172-0.691c0.567-0.183,1.132-0.367,1.689-0.552
	c0.702-0.233,1.392-0.468,2.078-0.704c0.542-0.186,1.084-0.372,1.616-0.56c0.683-0.241,1.35-0.485,2.016-0.729
	c0.507-0.186,1.019-0.37,1.516-0.558c0.682-0.256,1.344-0.516,2.008-0.775c0.455-0.178,0.919-0.355,1.366-0.534
	c0.735-0.295,1.447-0.593,2.159-0.892c0.351-0.147,0.713-0.292,1.058-0.44c1.036-0.444,2.047-0.892,3.032-1.344
	c0.268-0.123,0.52-0.248,0.785-0.372c0.715-0.334,1.427-0.669,2.115-1.008c0.369-0.182,0.721-0.366,1.083-0.55
	c0.562-0.285,1.126-0.57,1.669-0.857c0.375-0.199,0.736-0.4,1.102-0.601c0.504-0.276,1.008-0.552,1.495-0.831
	c0.364-0.208,0.716-0.418,1.07-0.628c0.465-0.276,0.927-0.552,1.375-0.83c0.344-0.213,0.679-0.428,1.013-0.642
	c0.435-0.28,0.863-0.561,1.281-0.843c0.161-0.109,0.335-0.216,0.494-0.325v107.913H477.065z M477.065,190.639
	c0,5.843-12.874,18.684-61.122,29.747c-42.64,9.777-99.446,15.162-159.953,15.162s-117.313-5.385-159.953-15.162
	c-48.248-11.063-61.122-23.903-61.122-29.747V82.726c0.159,0.109,0.333,0.216,0.494,0.325c0.418,0.282,0.846,0.563,1.281,0.843
	c0.334,0.215,0.669,0.429,1.013,0.642c0.449,0.278,0.911,0.555,1.377,0.831c0.353,0.209,0.704,0.419,1.067,0.626
	c0.488,0.279,0.992,0.555,1.497,0.832c0.366,0.2,0.726,0.401,1.101,0.6c0.543,0.288,1.106,0.573,1.669,0.857
	c0.362,0.183,0.714,0.368,1.083,0.55c0.688,0.339,1.4,0.673,2.115,1.008c0.264,0.124,0.517,0.249,0.785,0.372
	c0.985,0.452,1.997,0.9,3.032,1.344c0.342,0.147,0.703,0.291,1.051,0.437c0.714,0.299,1.428,0.599,2.165,0.895
	c0.447,0.179,0.911,0.356,1.366,0.534c0.663,0.259,1.326,0.519,2.008,0.775c0.497,0.187,1.009,0.372,1.516,0.558
	c0.666,0.244,1.333,0.487,2.016,0.729c0.531,0.188,1.074,0.374,1.615,0.56c0.687,0.236,1.378,0.471,2.081,0.705
	c0.556,0.185,1.12,0.368,1.686,0.551c0.717,0.232,1.441,0.462,2.174,0.692c0.575,0.18,1.154,0.359,1.739,0.537
	c0.754,0.23,1.518,0.458,2.288,0.684c0.588,0.173,1.176,0.347,1.773,0.518c0.802,0.23,1.618,0.459,2.438,0.686
	c0.591,0.164,1.179,0.329,1.779,0.492c0.868,0.235,1.754,0.468,2.641,0.701c0.575,0.151,1.143,0.303,1.726,0.452
	c1,0.256,2.023,0.509,3.047,0.762c0.492,0.121,0.973,0.245,1.47,0.365c1.534,0.372,3.09,0.74,4.675,1.103
	c43.707,10.021,101.704,15.541,163.307,15.541s119.601-5.52,163.307-15.541c1.585-0.363,3.141-0.732,4.675-1.103
	c0.498-0.121,0.98-0.244,1.472-0.365c1.023-0.252,2.044-0.505,3.043-0.761c0.584-0.15,1.154-0.302,1.73-0.453
	c0.885-0.232,1.77-0.464,2.637-0.7c0.6-0.163,1.188-0.328,1.779-0.492c0.819-0.228,1.636-0.456,2.438-0.686
	c0.598-0.172,1.186-0.345,1.773-0.518c0.77-0.227,1.535-0.455,2.288-0.684c0.585-0.178,1.164-0.358,1.74-0.538
	c0.732-0.229,1.456-0.459,2.172-0.691c0.567-0.183,1.132-0.367,1.689-0.552c0.702-0.233,1.392-0.468,2.078-0.704
	c0.542-0.186,1.084-0.372,1.616-0.56c0.683-0.241,1.35-0.485,2.016-0.729c0.507-0.186,1.019-0.37,1.516-0.558
	c0.682-0.256,1.344-0.516,2.008-0.775c0.455-0.178,0.919-0.355,1.366-0.534c0.735-0.295,1.447-0.593,2.159-0.892
	c0.351-0.147,0.713-0.292,1.058-0.44c1.036-0.444,2.047-0.892,3.032-1.344c0.268-0.123,0.52-0.248,0.785-0.372
	c0.715-0.334,1.427-0.669,2.115-1.008c0.369-0.182,0.721-0.366,1.083-0.55c0.562-0.285,1.126-0.57,1.669-0.857
	c0.375-0.199,0.736-0.4,1.102-0.601c0.504-0.276,1.008-0.552,1.495-0.831c0.364-0.208,0.716-0.418,1.07-0.628
	c0.465-0.276,0.927-0.552,1.375-0.83c0.344-0.213,0.679-0.428,1.013-0.642c0.435-0.28,0.863-0.561,1.281-0.843
	c0.161-0.109,0.335-0.216,0.494-0.325v107.913H477.065z"/>
<path d="M374.129,144.51c-11.406,11.407-11.406,29.966,0,41.373c5.703,5.702,13.195,8.555,20.687,8.555s14.983-2.852,20.687-8.555
	c11.406-11.407,11.406-29.966,0-41.373C404.095,133.105,385.536,133.105,374.129,144.51z M404.889,175.27
	c-2.69,2.691-6.268,4.173-10.073,4.173s-7.383-1.482-10.073-4.173c-2.691-2.69-4.173-6.268-4.173-10.073s1.482-7.383,4.173-10.073
	c2.69-2.691,6.268-4.173,10.073-4.173s7.383,1.482,10.073,4.173c2.691,2.69,4.173,6.268,4.173,10.073S407.58,172.58,404.889,175.27z
	"/>
<path d="M374.129,273.513c-11.406,11.407-11.406,29.966,0,41.373c5.703,5.702,13.195,8.555,20.687,8.555s14.983-2.852,20.687-8.555
	c11.406-11.407,11.406-29.966,0-41.373C404.095,262.108,385.536,262.108,374.129,273.513z M404.889,304.273
	c-2.69,2.691-6.268,4.173-10.073,4.173s-7.383-1.482-10.073-4.173c-2.691-2.69-4.173-6.268-4.173-10.073s1.482-7.383,4.173-10.073
	c2.69-2.691,6.268-4.173,10.073-4.173s7.383,1.482,10.073,4.173c2.691,2.69,4.173,6.268,4.173,10.073
	S407.58,301.583,404.889,304.273z"/>
<path d="M374.129,402.711c-11.406,11.407-11.406,29.966,0,41.373c5.703,5.702,13.195,8.555,20.687,8.555s14.983-2.852,20.687-8.555
	c11.406-11.407,11.406-29.966,0-41.373C404.095,391.306,385.536,391.306,374.129,402.711z M404.889,433.471
	c-2.69,2.691-6.268,4.173-10.073,4.173s-7.383-1.482-10.073-4.173c-2.691-2.69-4.173-6.268-4.173-10.073s1.482-7.383,4.173-10.073
	c2.69-2.691,6.268-4.173,10.073-4.173s7.383,1.482,10.073,4.173c2.691,2.69,4.173,6.268,4.173,10.073
	C409.063,427.202,407.58,430.781,404.889,433.471z"/>
<path d="M330.487,427.677c-10.495,0.844-21.339,1.513-32.231,1.986c-4.14,0.181-7.351,3.683-7.171,7.824
	c0.176,4.03,3.497,7.178,7.492,7.178c0.11,0,0.221-0.002,0.332-0.007c11.076-0.482,22.104-1.162,32.782-2.022
	c4.131-0.332,7.211-3.951,6.878-8.082C338.237,430.425,334.608,427.33,330.487,427.677z"/>
<path d="M258.326,430.57c-0.006,0-0.013,0-0.019,0l-2.316,0.002c-60.941,0-117.791-5.466-160.078-15.391
	c-4.026-0.943-8.073,1.556-9.021,5.591c-0.947,4.036,1.557,8.074,5.591,9.021c43.378,10.181,101.446,15.787,163.508,15.787
	l2.353-0.002c4.145-0.011,7.496-3.379,7.486-7.523C265.818,433.917,262.461,430.57,258.326,430.57z"/>
<g>
</g>
<g>
</g>
<g>
</g>
<g>
</g>
<g>
</g>
<g>
</g>
<g>
</g>
<g>
</g>
<g>
</g>
<g>
</g>
<g>
</g>
<g>
</g>
<g>
</g>
<g>
</g>
<g>
</g>
</svg>
