<?xml version="1.0" encoding="iso-8859-1"?>
<!-- Generator: Adobe Illustrator 21.0.0, SVG Export Plug-In . SVG Version: 6.00 Build 0)  -->
<svg version="1.1" id="Capa_1" xmlns="http://www.w3.org/2000/svg" xmlns:xlink="http://www.w3.org/1999/xlink" x="0px" y="0px"
	 viewBox="0 0 512 512" style="enable-background:new 0 0 512 512;" xml:space="preserve">
<path style="fill:#EDEBED;" d="M208.053,14.231L19.637,79.452c-7.202,2.493-11.689,9.701-10.651,17.251
	c6.699,48.703,41.057,222.355,198.168,326.014c5.278,3.482,12.253,3.482,17.531,0c157.111-103.66,191.47-277.311,198.168-326.014
	c1.038-7.55-3.449-14.758-10.651-17.251L223.786,14.231C218.69,12.467,213.149,12.467,208.053,14.231z"/>
<path style="fill:#DBD9DC;" d="M75.467,60.126l-55.83,19.326c-7.202,2.493-11.689,9.701-10.651,17.251
	c6.699,48.703,41.057,222.355,198.168,326.014c5.278,3.482,12.253,3.482,17.531,0c7.571-4.995,14.771-10.198,21.783-15.496
	C117.644,291.648,83.731,121.303,75.467,60.126z"/>
<path style="fill:#FFE17D;" d="M382.552,103.119L223.786,48.163c-5.096-1.764-10.637-1.764-15.733,0L49.287,103.119
	c-3.772,1.306-6.006,5.149-5.26,9.07c11.44,60.131,48.99,188.893,167.086,274.298c2.834,2.05,6.78,2.05,9.615,0
	C338.82,301.085,376.371,172.322,387.812,112.19C388.559,108.268,386.324,104.425,382.552,103.119z"/>
<path style="fill:#FFEDB1;" d="M220.726,386.487c118.093-85.402,155.645-214.165,167.086-274.297
	c0.746-3.921-1.487-7.765-5.261-9.07L223.786,48.162c-2.548-0.882-5.207-1.323-7.866-1.323v341.185
	C217.614,388.024,219.309,387.512,220.726,386.487z"/>
<path style="fill:#5D5360;" d="M247.984,179.847c0-20.25-18.772-36.116-39.864-31.145c-11.292,2.661-20.485,11.74-23.261,23.004
	c-3.524,14.3,2.549,27.411,13.06,34.526c4.766,3.226,7.257,8.895,6.685,14.622l-4.012,40.119c-0.378,3.775,2.587,7.051,6.381,7.051
	h17.892c3.794,0,6.759-3.276,6.381-7.051l-4.011-40.107c-0.565-5.648,1.772-11.357,6.494-14.506
	C242.311,200.639,247.984,190.942,247.984,179.847z"/>
<path style="fill:#FFD164;" d="M80.735,92.234L49.287,103.12c-3.772,1.305-6.006,5.149-5.26,9.07
	c11.44,60.131,48.99,188.893,167.085,274.297c2.835,2.05,6.78,2.05,9.615,0c0.825-0.596,1.605-1.216,2.422-1.817
	C130.023,287.764,94.179,162.839,80.735,92.234z"/>
<path style="fill:#A5CDFF;" d="M488.468,500.492H207.904c-8.854,0-16.032-7.178-16.032-16.032V332.153
	c0-8.854,7.178-16.032,16.032-16.032h280.565c8.854,0,16.032,7.178,16.032,16.032V484.46
	C504.5,493.314,497.322,500.492,488.468,500.492z"/>
<path style="fill:#4B3F4E;" d="M208.121,172.75c16.658-3.926,31.826,5.166,37.486,19.128c1.523-3.708,2.378-7.762,2.378-12.032
	c0-20.251-18.772-36.116-39.863-31.145c-11.292,2.662-20.485,11.74-23.261,23.005c-1.769,7.18-1.115,14.058,1.302,20.03
	C189.918,182.371,198.208,175.087,208.121,172.75z"/>
<path style="fill:#8CB4EB;" d="M247.984,476.444c-17.709,0-32.065-14.356-32.065-32.065V316.121h-8.016
	c-8.854,0-16.032,7.178-16.032,16.032V484.46c0,8.854,7.178,16.032,16.032,16.032h280.565c8.854,0,16.032-7.178,16.032-16.032
	v-8.016H247.984z"/>
<path d="M251.992,363.702c6.915,0,12.541,5.625,12.541,12.54c0,4.142,3.358,7.5,7.5,7.5s7.5-3.358,7.5-7.5
	c0-15.186-12.354-27.54-27.541-27.54c-15.186,0-27.54,12.354-27.54,27.54v64.129c0,15.186,12.354,27.54,27.54,27.54
	s27.541-12.354,27.541-27.54v-20.038c0-4.142-3.357-7.5-7.499-7.5l-16.032-0.002l0,0c-4.142,0-7.5,3.357-7.5,7.499
	s3.357,7.5,7.499,7.501l8.533,0.001v12.539c0,6.915-5.625,12.54-12.541,12.54c-6.915,0-12.54-5.625-12.54-12.54v-64.129
	C239.452,369.327,245.077,363.702,251.992,363.702z"/>
<path d="M296.081,348.702c-4.142,0-7.5,3.358-7.5,7.5s3.358,7.5,7.5,7.5c17.965,0,32.581,14.616,32.581,32.581v24.048
	c0,15.385-10.719,28.313-25.081,31.709v-63.775c0-4.142-3.358-7.5-7.5-7.5s-7.5,3.358-7.5,7.5v72.146c0,4.142,3.358,7.5,7.5,7.5
	c26.236,0,47.581-21.345,47.581-47.581v-24.048C343.661,370.046,322.317,348.702,296.081,348.702z"/>
<path d="M368.226,348.702h-8.016c-4.142,0-7.5,3.358-7.5,7.5s3.358,7.5,7.5,7.5h8.016c13.545,0,24.565,11.02,24.565,24.564
	s-11.02,24.564-24.565,24.564h-0.516v-24.565c0-4.142-3.358-7.5-7.5-7.5s-7.5,3.358-7.5,7.5v72.146c0,4.142,3.358,7.5,7.5,7.5
	s7.5-3.358,7.5-7.5V427.83h0.516c21.816,0,39.565-17.749,39.565-39.564S390.042,348.702,368.226,348.702z"/>
<path d="M456.244,419.778c9.517-7.232,15.676-18.664,15.676-31.512c0-21.816-17.749-39.564-39.564-39.564h-8.016
	c-4.142,0-7.5,3.358-7.5,7.5s3.358,7.5,7.5,7.5h8.016c13.545,0,24.564,11.02,24.564,24.564s-11.02,24.564-24.564,24.564h-0.516
	v-24.565c0-4.142-3.358-7.5-7.5-7.5s-7.5,3.358-7.5,7.5v72.146c0,4.142,3.358,7.5,7.5,7.5s7.5-3.358,7.5-7.5V427.83h0.516
	c3.598,0,7.081-0.492,10.396-1.396l14.705,36.762c1.173,2.932,3.989,4.716,6.966,4.716c0.927,0,1.87-0.173,2.783-0.539
	c3.846-1.538,5.716-5.903,4.178-9.749L456.244,419.778z"/>
<path d="M488.468,308.621H353.736c35.027-55.136,54.165-110.83,64.185-148.919c11.645-44.262,13.813-74.276,13.9-75.532
	c0.233-3.379-1.828-6.496-5.029-7.604L218.373,4.421c-1.589-0.55-3.317-0.55-4.906,0L5.047,76.566
	c-3.201,1.108-5.262,4.224-5.029,7.604c0.153,2.214,4.027,55.027,28.98,123.875c14.656,40.439,33.584,77.954,56.261,111.504
	c27.654,40.915,60.995,75.983,99.113,104.326v60.585c0,12.976,10.557,23.532,23.532,23.532h280.564
	c12.976,0,23.532-10.557,23.532-23.532V332.153C512,319.178,501.444,308.621,488.468,308.621z M97.851,311.394
	c-21.973-32.463-40.339-68.803-54.587-108.008c-19.721-54.262-26.028-99.207-27.73-114.576L215.92,19.445l200.383,69.363
	c-2.742,24.614-17.385,125.098-80.461,219.813H223.42v-33.097h8.532c2.119,0,4.139-0.896,5.561-2.467s2.113-3.67,1.902-5.779
	l-5.248-52.474c12.958-6.73,21.317-20.121,21.317-34.958c0-19.251-13.824-35.327-32.064-38.842V55.972l157.185,54.411
	c-6.908,37.474-24.041,104.17-64.827,169.713c-2.188,3.517-1.112,8.142,2.405,10.33c1.233,0.768,2.603,1.133,3.955,1.133
	c2.505,0,4.954-1.255,6.375-3.539c44.519-71.542,61.705-144.347,67.986-181.378c0.613-3.615-1.477-7.143-4.941-8.342L218.437,38.374
	c-0.799-0.285-1.65-0.437-2.517-0.437l0,0l0,0c-0.863,0-1.712,0.15-2.509,0.434L85.209,82.749c-3.915,1.355-5.989,5.626-4.634,9.541
	c1.355,3.915,5.626,5.988,9.541,4.634L208.42,55.972v85.033c-18.241,3.516-32.064,19.591-32.064,38.842
	c0,14.837,8.359,28.229,21.317,34.958l-5.248,52.474c-0.211,2.108,0.48,4.208,1.902,5.779c1.422,1.571,3.442,2.467,5.561,2.467
	h8.532v33.097h-0.516c-12.976,0-23.532,10.557-23.532,23.532v30.736C91.998,278.415,60.986,163.23,51.233,110.383l10.43-3.61
	c3.915-1.355,5.989-5.626,4.634-9.541c-1.355-3.915-5.625-5.991-9.541-4.634l-16.479,5.704c-3.465,1.199-5.554,4.727-4.941,8.342
	c8.945,52.736,41.334,184.56,149.035,276.243v22.1C151.399,378.976,122.332,347.561,97.851,311.394z M208.089,202.985
	c-10.009-3.393-16.734-12.691-16.734-23.138c0-13.545,11.02-24.564,24.564-24.564s24.564,11.02,24.564,24.564
	c0,10.447-6.725,19.745-16.734,23.138c-3.307,1.121-5.402,4.375-5.055,7.849l4.969,49.69h-15.489l4.969-49.69
	C213.492,207.36,211.396,204.106,208.089,202.985z M497,484.46c0,4.705-3.828,8.532-8.532,8.532H207.904
	c-4.705,0-8.532-3.828-8.532-8.532V332.153c0-4.705,3.828-8.532,8.532-8.532h280.564c4.705,0,8.532,3.828,8.532,8.532L497,484.46
	L497,484.46z"/>
<g>
</g>
<g>
</g>
<g>
</g>
<g>
</g>
<g>
</g>
<g>
</g>
<g>
</g>
<g>
</g>
<g>
</g>
<g>
</g>
<g>
</g>
<g>
</g>
<g>
</g>
<g>
</g>
<g>
</g>
</svg>
