<?xml version="1.0" encoding="iso-8859-1"?>
<!-- Generator: Adobe Illustrator 18.0.0, SVG Export Plug-In . SVG Version: 6.00 Build 0)  -->
<!DOCTYPE svg PUBLIC "-//W3C//DTD SVG 1.1//EN" "http://www.w3.org/Graphics/SVG/1.1/DTD/svg11.dtd">
<svg version="1.1" id="Capa_1" xmlns="http://www.w3.org/2000/svg" xmlns:xlink="http://www.w3.org/1999/xlink" x="0px" y="0px"
	 viewBox="0 0 444.259 444.259" style="enable-background:new 0 0 444.259 444.259;" xml:space="preserve">
<g>
	<g id="XMLID_4_">
		<g>
			<path style="fill:#C6B54F;" d="M323.193,353.688h-27.2c3.67-4.22,9.08-6.85,14.97-6.85
				C316.133,346.838,320.673,349.588,323.193,353.688z"/>
			<path style="fill:#C6B54F;" d="M383.613,97.388h-16.19v-9.23c0-3.1,0.34-6.15,1.01-9.11h12
				C379.323,85.308,380.443,91.818,383.613,97.388z"/>
			<path style="fill:#C6B54F;" d="M420.093,57.678c10.16,8.02,11.9,22.82,3.88,32.99c-5.9,7.48-16.8,8.76-24.28,2.86
				c-5.34-4.22-6.25-11.99-2.04-17.33c1.78-2.26,2.12-5.33,0.87-7.92c-1.26-2.58-3.88-4.23-6.75-4.23h-16.47
				c0.3-0.41,0.61-0.81,0.92-1.21C386.893,49.318,406.573,47.008,420.093,57.678z"/>
			<path style="fill:#E5D665;" d="M285.823,393.298H43.753c-7.16,0.06-13.94-2.26-19.59-6.72c-10.16-8.02-11.9-22.82-3.88-32.99
				c3.43-4.34,8.68-6.85,14.01-6.72c0.06,0,0.12,0,0.18,0h247.87c-2.63,3.78-4.53,8.11-5.49,12.82c0,0,0,0,0,0.01
				c-0.47,2.26-0.7,4.61-0.7,6.95C276.153,376.778,279.793,386.068,285.823,393.298z"/>
			<path style="fill:#E5D665;" d="M125.383,50.958h241.29c-0.77,0.83-1.51,1.69-2.22,2.59c-7.87,9.98-12.03,21.95-12.03,34.61
				v267.94c0,9.26-3.05,18.02-8.81,25.33c-5.96,7.54-14.89,11.87-24.51,11.87c-0.01,0-0.52,0-1.38,0
				c-13.97-0.03-25.45-10.88-26.49-24.61h41.58c4.15,0,7.5-3.36,7.5-7.5c0-16.18-13.16-29.35-29.35-29.35
				c-0.43,0-219.12,0.03-219.12,0.03V88.158c0-9.26,3.04-18.02,8.81-25.32c5.95-7.55,14.88-11.88,24.51-11.88c0.02,0,0.04,0,0.05,0
				C125.263,50.958,125.323,50.958,125.383,50.958z M317.633,136.458c0-4.14-3.36-7.5-7.5-7.5c-3.67,0-5.09-1.13-7.91-3.37
				c-3.52-2.8-8.33-6.63-17.24-6.63c-8.9,0-13.72,3.83-17.24,6.63c-2.82,2.24-4.24,3.37-7.91,3.37c-3.66,0-5.08-1.13-7.9-3.37
				c-3.52-2.8-8.33-6.63-17.24-6.63c-8.9,0-13.72,3.83-17.24,6.63c-2.82,2.24-4.23,3.37-7.9,3.37s-5.08-1.13-7.9-3.37
				c-3.52-2.8-8.34-6.63-17.24-6.63c-8.91,0-13.72,3.83-17.24,6.63c-2.82,2.24-4.24,3.37-7.9,3.37c-3.67,0-5.08-1.13-7.9-3.37
				c-3.52-2.8-8.34-6.63-17.24-6.63c-4.15,0-7.5,3.36-7.5,7.5c0,4.14,3.35,7.5,7.5,7.5c3.66,0,5.08,1.13,7.9,3.37
				c3.51,2.8,8.33,6.63,17.24,6.63c8.9,0,13.72-3.83,17.24-6.63c2.82-2.24,4.23-3.37,7.9-3.37c3.66,0,5.08,1.13,7.9,3.37
				c3.52,2.8,8.33,6.63,17.24,6.63c8.9,0,13.72-3.83,17.24-6.63c2.82-2.24,4.24-3.37,7.9-3.37c3.67,0,5.08,1.13,7.9,3.37
				c3.52,2.8,8.34,6.63,17.24,6.63c8.91,0,13.73-3.83,17.25-6.63c2.82-2.24,4.23-3.37,7.9-3.37c3.67,0,5.08,1.13,7.91,3.37
				c3.51,2.8,8.33,6.63,17.24,6.63C314.273,143.958,317.633,140.598,317.633,136.458z M317.633,177.788c0-4.14-3.36-7.5-7.5-7.5
				c-3.67,0-5.09-1.12-7.91-3.37c-3.52-2.79-8.33-6.63-17.24-6.63c-8.9,0-13.72,3.84-17.24,6.63c-2.82,2.25-4.24,3.37-7.91,3.37
				c-3.66,0-5.08-1.12-7.9-3.37c-3.52-2.79-8.33-6.63-17.24-6.63c-8.9,0-13.72,3.84-17.24,6.63c-2.82,2.25-4.23,3.37-7.9,3.37
				s-5.08-1.12-7.9-3.37c-3.52-2.79-8.34-6.63-17.24-6.63c-8.91,0-13.72,3.84-17.24,6.63c-2.82,2.25-4.24,3.37-7.9,3.37
				c-3.67,0-5.08-1.12-7.9-3.37c-3.52-2.79-8.34-6.63-17.24-6.63c-4.15,0-7.5,3.36-7.5,7.5c0,4.15,3.35,7.5,7.5,7.5
				c3.66,0,5.08,1.13,7.9,3.37c3.51,2.8,8.33,6.63,17.24,6.63c8.9,0,13.72-3.83,17.24-6.63c2.82-2.24,4.23-3.37,7.9-3.37
				c3.66,0,5.08,1.13,7.9,3.37c3.52,2.8,8.33,6.63,17.24,6.63c8.9,0,13.72-3.83,17.24-6.63c2.82-2.24,4.24-3.37,7.9-3.37
				c3.67,0,5.08,1.13,7.9,3.37c3.52,2.8,8.34,6.63,17.24,6.63c8.91,0,13.73-3.83,17.25-6.63c2.82-2.24,4.23-3.37,7.9-3.37
				c3.67,0,5.08,1.13,7.91,3.37c3.51,2.8,8.33,6.63,17.24,6.63C314.273,185.288,317.633,181.938,317.633,177.788z M317.633,219.128
				c0-4.14-3.36-7.5-7.5-7.5c-3.67,0-5.09-1.13-7.91-3.37c-3.52-2.8-8.33-6.63-17.24-6.63c-8.9,0-13.72,3.83-17.24,6.63
				c-2.82,2.24-4.24,3.37-7.91,3.37c-3.66,0-5.08-1.13-7.9-3.37c-3.52-2.8-8.33-6.63-17.24-6.63c-8.9,0-13.72,3.83-17.24,6.63
				c-2.82,2.24-4.23,3.37-7.9,3.37s-5.08-1.13-7.9-3.37c-3.52-2.8-8.34-6.63-17.24-6.63c-8.91,0-13.72,3.83-17.24,6.63
				c-2.82,2.24-4.24,3.37-7.9,3.37c-3.67,0-5.08-1.13-7.9-3.37c-3.52-2.8-8.34-6.63-17.24-6.63c-4.15,0-7.5,3.36-7.5,7.5
				c0,4.14,3.35,7.5,7.5,7.5c3.66,0,5.08,1.12,7.9,3.37c3.51,2.8,8.33,6.63,17.24,6.63c8.9,0,13.72-3.83,17.24-6.63
				c2.82-2.25,4.23-3.37,7.9-3.37c3.66,0,5.08,1.12,7.9,3.37c3.52,2.8,8.33,6.63,17.24,6.63c8.9,0,13.72-3.83,17.24-6.63
				c2.82-2.25,4.24-3.37,7.9-3.37c3.67,0,5.08,1.12,7.9,3.37c3.52,2.8,8.34,6.63,17.24,6.63c8.91,0,13.73-3.83,17.25-6.63
				c2.82-2.25,4.23-3.37,7.9-3.37c3.67,0,5.08,1.12,7.91,3.37c3.51,2.8,8.33,6.63,17.24,6.63
				C314.273,226.628,317.633,223.268,317.633,219.128z M304.103,308.158c14.23-14.23,14.23-37.39,0-51.62
				c-14.23-14.23-37.39-14.23-51.62,0c-14.23,14.23-14.23,37.39,0,51.62c7.12,7.12,16.46,10.67,25.81,10.67
				S296.983,315.278,304.103,308.158z"/>
			<path style="fill:#E0974F;" d="M297.823,273.418c2.58,5.66,2.58,12.2,0,17.86l-8.92-8.93L297.823,273.418z"/>
			<path style="fill:#E0974F;" d="M278.293,292.958l8.93,8.92c-5.66,2.58-12.2,2.58-17.85,0L278.293,292.958z"/>
			<path style="fill:#E0974F;" d="M258.763,273.418l8.92,8.93l-8.92,8.93C256.183,285.618,256.183,279.078,258.763,273.418z"/>
			<path style="fill:#E0974F;" d="M287.223,262.818l-8.93,8.92l-8.92-8.92c2.82-1.29,5.87-1.96,8.92-1.96
				S284.393,261.528,287.223,262.818z"/>
			<path style="fill:#4D4D4D;" d="M429.383,45.898c16.66,13.15,19.51,37.4,6.36,54.06c-6.48,8.21-16.17,12.42-25.91,12.26h-42.41
				v243.88c0,12.66-4.16,24.63-12.03,34.61c-8.8,11.16-21.99,17.56-36.2,17.59c-0.06,0-275.62,0-275.74,0
				c-10.29,0-20.44-3.52-28.58-9.94c-16.66-13.15-19.51-37.4-6.36-54.06c6.31-8,16.04-12.64,26.05-12.43h42.28V88.158
				c0-12.66,4.16-24.63,12.03-34.61c8.8-11.16,21.99-17.56,36.21-17.59c0.05,0,276.09,0,276.09,0
				C411.073,36.038,421.023,39.308,429.383,45.898z M423.973,90.668c8.02-10.17,6.28-24.97-3.88-32.99
				c-13.52-10.67-33.2-8.36-43.87,5.16c-0.31,0.4-0.62,0.8-0.92,1.21h16.47c2.87,0,5.49,1.65,6.75,4.23
				c1.25,2.59,0.91,5.66-0.87,7.92c-4.21,5.34-3.3,13.11,2.04,17.33C407.173,99.428,418.073,98.148,423.973,90.668z M367.423,97.388
				h16.19c-3.17-5.57-4.29-12.08-3.18-18.34h-12c-0.67,2.96-1.01,6.01-1.01,9.11V97.388z M366.673,50.958h-241.29
				c-0.06,0-0.12,0-0.17,0c-0.01,0-0.03,0-0.05,0c-9.63,0-18.56,4.33-24.51,11.88c-5.77,7.3-8.81,16.06-8.81,25.32v243.71
				c0,0,218.69-0.03,219.12-0.03c16.19,0,29.35,13.17,29.35,29.35c0,4.14-3.35,7.5-7.5,7.5h-41.58
				c1.04,13.73,12.52,24.58,26.49,24.61c0.86,0,1.37,0,1.38,0c9.62,0,18.55-4.33,24.51-11.87c5.76-7.31,8.81-16.07,8.81-25.33
				V88.158c0-12.66,4.16-24.63,12.03-34.61C365.163,52.648,365.903,51.788,366.673,50.958z M295.993,353.688h27.2
				c-2.52-4.1-7.06-6.85-12.23-6.85C305.073,346.838,299.663,349.468,295.993,353.688z M43.753,393.298h242.07
				c-6.03-7.23-9.67-16.52-9.67-26.65c0-2.34,0.23-4.69,0.7-6.95c0-0.01,0-0.01,0-0.01c0.96-4.71,2.86-9.04,5.49-12.82H34.473
				c-0.06,0-0.12,0-0.18,0c-5.33-0.13-10.58,2.38-14.01,6.72c-8.02,10.17-6.28,24.97,3.88,32.99
				C29.813,391.038,36.593,393.358,43.753,393.298z"/>
			<path style="fill:#4D4D4D;" d="M310.133,128.958c4.14,0,7.5,3.36,7.5,7.5s-3.36,7.5-7.5,7.5c-8.91,0-13.73-3.83-17.24-6.63
				c-2.83-2.24-4.24-3.37-7.91-3.37c-3.67,0-5.08,1.13-7.9,3.37c-3.52,2.8-8.34,6.63-17.25,6.63c-8.9,0-13.72-3.83-17.24-6.63
				c-2.82-2.24-4.23-3.37-7.9-3.37c-3.66,0-5.08,1.13-7.9,3.37c-3.52,2.8-8.34,6.63-17.24,6.63c-8.91,0-13.72-3.83-17.24-6.63
				c-2.82-2.24-4.24-3.37-7.9-3.37c-3.67,0-5.08,1.13-7.9,3.37c-3.52,2.8-8.34,6.63-17.24,6.63c-8.91,0-13.73-3.83-17.24-6.63
				c-2.82-2.24-4.24-3.37-7.9-3.37c-4.15,0-7.5-3.36-7.5-7.5c0-4.14,3.35-7.5,7.5-7.5c8.9,0,13.72,3.83,17.24,6.63
				c2.82,2.24,4.23,3.37,7.9,3.37c3.66,0,5.08-1.13,7.9-3.37c3.52-2.8,8.33-6.63,17.24-6.63c8.9,0,13.72,3.83,17.24,6.63
				c2.82,2.24,4.23,3.37,7.9,3.37s5.08-1.13,7.9-3.37c3.52-2.8,8.34-6.63,17.24-6.63c8.91,0,13.72,3.83,17.24,6.63
				c2.82,2.24,4.24,3.37,7.9,3.37c3.67,0,5.09-1.13,7.91-3.37c3.52-2.8,8.34-6.63,17.24-6.63c8.91,0,13.72,3.83,17.24,6.63
				C305.043,127.828,306.463,128.958,310.133,128.958z"/>
			<path style="fill:#4D4D4D;" d="M310.133,170.288c4.14,0,7.5,3.36,7.5,7.5c0,4.15-3.36,7.5-7.5,7.5c-8.91,0-13.73-3.83-17.24-6.63
				c-2.83-2.24-4.24-3.37-7.91-3.37c-3.67,0-5.08,1.13-7.9,3.37c-3.52,2.8-8.34,6.63-17.25,6.63c-8.9,0-13.72-3.83-17.24-6.63
				c-2.82-2.24-4.23-3.37-7.9-3.37c-3.66,0-5.08,1.13-7.9,3.37c-3.52,2.8-8.34,6.63-17.24,6.63c-8.91,0-13.72-3.83-17.24-6.63
				c-2.82-2.24-4.24-3.37-7.9-3.37c-3.67,0-5.08,1.13-7.9,3.37c-3.52,2.8-8.34,6.63-17.24,6.63c-8.91,0-13.73-3.83-17.24-6.63
				c-2.82-2.24-4.24-3.37-7.9-3.37c-4.15,0-7.5-3.35-7.5-7.5c0-4.14,3.35-7.5,7.5-7.5c8.9,0,13.72,3.84,17.24,6.63
				c2.82,2.25,4.23,3.37,7.9,3.37c3.66,0,5.08-1.12,7.9-3.37c3.52-2.79,8.33-6.63,17.24-6.63c8.9,0,13.72,3.84,17.24,6.63
				c2.82,2.25,4.23,3.37,7.9,3.37s5.08-1.12,7.9-3.37c3.52-2.79,8.34-6.63,17.24-6.63c8.91,0,13.72,3.84,17.24,6.63
				c2.82,2.25,4.24,3.37,7.9,3.37c3.67,0,5.09-1.12,7.91-3.37c3.52-2.79,8.34-6.63,17.24-6.63c8.91,0,13.72,3.84,17.24,6.63
				C305.043,169.168,306.463,170.288,310.133,170.288z"/>
			<path style="fill:#4D4D4D;" d="M310.133,211.628c4.14,0,7.5,3.36,7.5,7.5c0,4.14-3.36,7.5-7.5,7.5c-8.91,0-13.73-3.83-17.24-6.63
				c-2.83-2.25-4.24-3.37-7.91-3.37c-3.67,0-5.08,1.12-7.9,3.37c-3.52,2.8-8.34,6.63-17.25,6.63c-8.9,0-13.72-3.83-17.24-6.63
				c-2.82-2.25-4.23-3.37-7.9-3.37c-3.66,0-5.08,1.12-7.9,3.37c-3.52,2.8-8.34,6.63-17.24,6.63c-8.91,0-13.72-3.83-17.24-6.63
				c-2.82-2.25-4.24-3.37-7.9-3.37c-3.67,0-5.08,1.12-7.9,3.37c-3.52,2.8-8.34,6.63-17.24,6.63c-8.91,0-13.73-3.83-17.24-6.63
				c-2.82-2.25-4.24-3.37-7.9-3.37c-4.15,0-7.5-3.36-7.5-7.5c0-4.14,3.35-7.5,7.5-7.5c8.9,0,13.72,3.83,17.24,6.63
				c2.82,2.24,4.23,3.37,7.9,3.37c3.66,0,5.08-1.13,7.9-3.37c3.52-2.8,8.33-6.63,17.24-6.63c8.9,0,13.72,3.83,17.24,6.63
				c2.82,2.24,4.23,3.37,7.9,3.37s5.08-1.13,7.9-3.37c3.52-2.8,8.34-6.63,17.24-6.63c8.91,0,13.72,3.83,17.24,6.63
				c2.82,2.24,4.24,3.37,7.9,3.37c3.67,0,5.09-1.13,7.91-3.37c3.52-2.8,8.34-6.63,17.24-6.63c8.91,0,13.72,3.83,17.24,6.63
				C305.043,210.498,306.463,211.628,310.133,211.628z"/>
			<path style="fill:#4D4D4D;" d="M304.103,256.538c14.23,14.23,14.23,37.39,0,51.62c-7.12,7.12-16.46,10.67-25.81,10.67
				s-18.69-3.55-25.81-10.67c-14.23-14.23-14.23-37.39,0-51.62C266.713,242.308,289.873,242.308,304.103,256.538z M297.823,291.278
				c2.58-5.66,2.58-12.2,0-17.86l-8.92,8.93L297.823,291.278z M278.293,271.738l8.93-8.92c-2.83-1.29-5.88-1.96-8.93-1.96
				s-6.1,0.67-8.92,1.96L278.293,271.738z M287.223,301.878l-8.93-8.92l-8.92,8.92C275.023,304.458,281.563,304.458,287.223,301.878
				z M267.683,282.348l-8.92-8.93c-2.58,5.66-2.58,12.2,0,17.86L267.683,282.348z"/>
		</g>
		<g>
		</g>
	</g>
</g>
<g>
</g>
<g>
</g>
<g>
</g>
<g>
</g>
<g>
</g>
<g>
</g>
<g>
</g>
<g>
</g>
<g>
</g>
<g>
</g>
<g>
</g>
<g>
</g>
<g>
</g>
<g>
</g>
<g>
</g>
</svg>
