<?xml version="1.0" encoding="iso-8859-1"?>
<!-- Generator: Adobe Illustrator 19.0.0, SVG Export Plug-In . SVG Version: 6.00 Build 0)  -->
<svg version="1.1" id="Layer_1" xmlns="http://www.w3.org/2000/svg" xmlns:xlink="http://www.w3.org/1999/xlink" x="0px" y="0px"
	 viewBox="0 0 511.999 511.999" style="enable-background:new 0 0 511.999 511.999;" xml:space="preserve">
<polygon style="fill:#CCCCCC;" points="302.308,470.313 209.679,470.313 217.435,438.006 224.927,406.838 287.072,406.838 
	294.552,438.006 "/>
<polygon style="fill:#999999;" points="294.552,438.006 217.435,438.006 224.927,406.838 254.389,374.745 287.072,406.838 "/>
<path style="fill:#CCCCCC;" d="M503.007,73.841v300.305c0,18.054-14.637,32.691-32.691,32.691H41.683
	c-18.054,0-32.691-14.637-32.691-32.691V73.841c0-18.054,14.637-32.691,32.691-32.691h428.634
	C488.37,41.15,503.007,55.787,503.007,73.841z"/>
<path style="fill:#E6E6E6;" d="M503.007,73.842v300.305c0,18.054-14.637,32.691-32.691,32.691H207.701L310.232,41.152h160.084
	C488.37,41.152,503.007,55.789,503.007,73.842z"/>
<rect x="8.992" y="85.999" style="fill:#9BD7F4;" width="494.015" height="275.994"/>
<polygon style="fill:#C8EDFC;" points="503.007,85.998 503.007,361.991 220.276,361.991 297.657,85.998 "/>
<path d="M470.317,32.428H41.683C18.7,32.428,0,51.127,0,74.111v40.433c0,4.965,4.025,8.991,8.991,8.991s8.991-4.025,8.991-8.991
	V74.111c0-13.069,10.633-23.701,23.701-23.701h428.634c13.069,0,23.701,10.633,23.701,23.701v267.002
	c0,4.965,4.025,8.991,8.991,8.991s8.991-4.025,8.991-8.991V74.111C512,51.127,493.3,32.428,470.317,32.428z"/>
<path d="M503.009,365.419c-4.965,0-8.991,4.025-8.991,8.991c0,13.069-10.633,23.701-23.701,23.701H41.683
	c-13.068,0.001-23.701-10.632-23.701-23.701V149.309c0-4.965-4.025-8.991-8.991-8.991S0,144.343,0,149.309v225.102
	c0,22.983,18.7,41.683,41.683,41.683h171.839L202.6,461.589h-28.514c-4.965,0-8.991,4.025-8.991,8.991
	c0,4.965,4.025,8.991,8.991,8.991h35.602h92.622h35.601c4.965,0,8.991-4.025,8.991-8.991c0-4.965-4.025-8.991-8.991-8.991h-28.513
	l-10.922-45.496h171.839c22.984,0,41.683-18.7,41.683-41.683C512,369.444,507.975,365.419,503.009,365.419z M290.906,461.589
	h-69.813l10.922-45.496h47.968L290.906,461.589z"/>
<path d="M39.35,371.245h433.302c4.965,0,8.991-4.025,8.991-8.991c0-4.965-4.025-8.991-8.991-8.991H39.35
	c-4.965,0-8.991,4.025-8.991,8.991C30.359,367.219,34.384,371.245,39.35,371.245z"/>
<path d="M481.641,86.266c0-4.965-4.025-8.991-8.991-8.991H39.35c-4.965,0-8.991,4.025-8.991,8.991c0,4.965,4.025,8.991,8.991,8.991
	h433.302C477.616,95.257,481.641,91.231,481.641,86.266z"/>
<path d="M164.624,187.228l-14.775,47.676l-23.894-46.601c-1.539-3.001-4.627-4.889-8.001-4.889c-3.373,0-6.461,1.888-8.001,4.889
	L86.06,234.906l-14.775-47.678c-1.47-4.744-6.506-7.394-11.249-5.927c-4.744,1.47-7.396,6.507-5.927,11.249l21.303,68.74
	c1.082,3.491,4.169,5.979,7.81,6.295c3.638,0.32,7.111-1.603,8.779-4.855l25.953-50.621l25.953,50.621
	c1.548,3.019,4.648,4.89,7.997,4.889c0.259,0,0.52-0.011,0.78-0.034c3.641-0.316,6.729-2.804,7.81-6.295l21.302-68.74
	c1.47-4.744-1.183-9.78-5.927-11.249C171.132,179.834,166.094,182.486,164.624,187.228z"/>
<path d="M450.376,216.799l7.515-24.248c1.47-4.744-1.183-9.78-5.927-11.249c-4.74-1.469-9.778,1.183-11.249,5.927l-7.515,24.248
	c-1.47,4.744,1.183,9.78,5.927,11.249c0.886,0.275,1.783,0.405,2.665,0.405C445.626,223.131,449.181,220.656,450.376,216.799z"/>
<path d="M436.308,231.819c-3.886-1.202-7.965,0.357-10.122,3.568l-24.14-47.082c-1.539-3.001-4.627-4.889-8.001-4.889
	s-6.461,1.888-8.001,4.889l-23.894,46.601l-14.775-47.676c-1.47-4.744-6.506-7.394-11.249-5.927
	c-4.744,1.47-7.396,6.507-5.927,11.249l21.302,68.74c1.081,3.491,4.169,5.979,7.81,6.295c3.632,0.32,7.111-1.603,8.779-4.855
	l25.953-50.621l25.953,50.621c1.548,3.019,4.648,4.89,7.997,4.889c0.259,0,0.52-0.011,0.78-0.034
	c3.641-0.316,6.728-2.804,7.81-6.295l5.647-18.224C443.705,238.326,441.051,233.289,436.308,231.819z"/>
<path d="M302.669,187.228l-14.775,47.676L264,188.303c-1.539-3.001-4.627-4.889-8.001-4.889s-6.461,1.888-8.001,4.889
	l-23.894,46.602l-14.775-47.678c-1.47-4.744-6.506-7.394-11.249-5.927c-4.744,1.47-7.396,6.507-5.927,11.249l21.303,68.74
	c1.082,3.491,4.169,5.979,7.81,6.295c3.635,0.32,7.11-1.603,8.779-4.855l25.953-50.621l25.953,50.621
	c1.548,3.019,4.648,4.89,7.997,4.889c0.259,0,0.52-0.011,0.78-0.034c3.641-0.316,6.729-2.804,7.81-6.295l21.302-68.74
	c1.47-4.744-1.183-9.78-5.927-11.249C309.177,179.834,304.139,182.486,302.669,187.228z"/>
<g>
</g>
<g>
</g>
<g>
</g>
<g>
</g>
<g>
</g>
<g>
</g>
<g>
</g>
<g>
</g>
<g>
</g>
<g>
</g>
<g>
</g>
<g>
</g>
<g>
</g>
<g>
</g>
<g>
</g>
</svg>
