<?xml version="1.0" encoding="iso-8859-1"?>
<!-- Generator: Adobe Illustrator 19.0.0, SVG Export Plug-In . SVG Version: 6.00 Build 0)  -->
<svg version="1.1" id="Layer_1" xmlns="http://www.w3.org/2000/svg" xmlns:xlink="http://www.w3.org/1999/xlink" x="0px" y="0px"
	 viewBox="0 0 512 512" style="enable-background:new 0 0 512 512;" xml:space="preserve">
<path style="fill:#E6E6E6;" d="M477.131,381.623v100.374c0,11.723-9.497,21.22-21.22,21.22H56.932
	c-11.723,0-21.22-9.498-21.22-21.22V381.623c0-11.723,9.498-21.22,21.22-21.22h40.215h318.536h40.227
	C467.633,360.403,477.131,369.9,477.131,381.623z M391.747,402.855c0-9.111-7.39-16.501-16.501-16.501
	c-9.111,0-16.501,7.39-16.501,16.501c0,9.111,7.39,16.501,16.501,16.501C384.357,419.355,391.747,411.966,391.747,402.855z
	 M391.747,460.765c0-9.111-7.39-16.501-16.501-16.501c-9.111,0-16.501,7.39-16.501,16.501c0,9.111,7.39,16.501,16.501,16.501
	C384.357,477.266,391.747,469.876,391.747,460.765z"/>
<path style="fill:#F2F2F2;" d="M477.131,381.611v100.386c0,11.711-9.497,21.22-21.22,21.22H278.385l4.345-10.786l53.226-132.029
	h119.955C467.633,360.403,477.131,369.9,477.131,381.611z"/>
<g>
	<path style="fill:#E6E6E6;" d="M477.131,205.807v100.374c0,11.723-9.497,21.22-21.22,21.22h-40.227H97.148H56.932
		c-11.723,0-21.22-9.497-21.22-21.22V205.807c0-11.711,9.498-21.22,21.22-21.22h40.215h318.536h40.227
		C467.633,184.587,477.131,194.096,477.131,205.807z M391.747,227.039c0-9.111-7.39-16.501-16.501-16.501
		c-9.111,0-16.501,7.39-16.501,16.501s7.39,16.501,16.501,16.501C384.357,243.54,391.747,236.15,391.747,227.039z M391.747,284.949
		c0-9.111-7.39-16.501-16.501-16.501c-9.111,0-16.501,7.39-16.501,16.501c0,9.111,7.39,16.501,16.501,16.501
		C384.357,301.45,391.747,294.06,391.747,284.949z"/>
	<path style="fill:#E6E6E6;" d="M455.911,8.783H56.932c-11.723,0-21.22,9.498-21.22,21.208v100.386
		c0,11.711,9.498,21.22,21.22,21.22h398.978c11.723,0,21.22-9.509,21.22-21.22V29.992C477.131,18.281,467.633,8.783,455.911,8.783z
		 M375.246,125.634c-9.111,0-16.501-7.378-16.501-16.489c0-9.123,7.39-16.501,16.501-16.501c9.111,0,16.501,7.378,16.501,16.501
		C391.747,118.257,384.357,125.634,375.246,125.634z M375.246,67.724c-9.111,0-16.501-7.378-16.501-16.489
		c0-9.123,7.39-16.501,16.501-16.501c9.111,0,16.501,7.378,16.501,16.501C391.747,60.346,384.357,67.724,375.246,67.724z"/>
</g>
<g>
	<path style="fill:#F2F2F2;" d="M477.131,29.992v100.386c0,11.711-9.497,21.22-21.22,21.22H278.385l4.345-10.786L335.956,8.783
		h119.955C467.633,8.783,477.131,18.281,477.131,29.992z"/>
	<path style="fill:#F2F2F2;" d="M477.131,205.795v100.386c0,11.711-9.497,21.22-21.22,21.22H278.385l4.345-10.786l53.226-132.029
		h119.955C467.633,184.587,477.131,194.085,477.131,205.795z"/>
</g>
<g>
	<circle style="fill:#91DAF5;" cx="375.252" cy="431.816" r="16.501"/>
	<circle style="fill:#91DAF5;" cx="375.252" cy="255.988" r="16.501"/>
	<path style="fill:#91DAF5;" d="M375.246,63.696c9.111,0,16.501,7.378,16.501,16.501c0,9.111-7.39,16.489-16.501,16.489
		c-9.111,0-16.501-7.378-16.501-16.489C358.745,71.073,366.135,63.696,375.246,63.696z"/>
	<rect x="97.148" y="151.597" style="fill:#91DAF5;" width="318.536" height="32.99"/>
	<rect x="97.148" y="327.401" style="fill:#91DAF5;" width="318.536" height="33.001"/>
</g>
<path d="M455.489,160.381c16.544,0,30.003-13.459,30.003-30.003V29.992C485.492,13.455,472.033,0,455.489,0h-72.363
	c-4.851,0-8.783,3.933-8.783,8.783s3.933,8.783,8.783,8.783h72.363c6.858,0,12.437,5.574,12.437,12.425v100.386
	c0,6.858-5.579,12.437-12.437,12.437H56.511c-6.858,0-12.437-5.579-12.437-12.437V29.992c0-6.851,5.579-12.425,12.437-12.425
	h291.483c4.851,0,8.783-3.933,8.783-8.783S352.844,0,347.994,0H56.511C39.967,0,26.508,13.455,26.508,29.992v100.386
	c0,16.544,13.459,30.003,30.003,30.003h31.432v15.423H56.511c-16.544,0-30.003,13.459-30.003,30.003v100.374
	c0,16.544,13.459,30.003,30.003,30.003h31.432v15.435H56.511c-16.544,0-30.003,13.459-30.003,30.003v100.374
	c0,16.544,13.459,30.003,30.003,30.003h58.437c4.851,0,8.783-3.932,8.783-8.783s-3.933-8.783-8.783-8.783H56.511
	c-6.858,0-12.437-5.579-12.437-12.437V381.623c0-6.858,5.579-12.437,12.437-12.437h398.978c6.858,0,12.437,5.579,12.437,12.437
	v100.374c0,6.858-5.579,12.437-12.437,12.437H150.081c-4.851,0-8.783,3.933-8.783,8.783S145.23,512,150.081,512h305.408
	c16.544,0,30.003-13.459,30.003-30.003V381.623c0-16.544-13.459-30.003-30.003-30.003h-31.444v-15.435h31.444
	c16.544,0,30.003-13.459,30.003-30.003V205.807c0-16.544-13.459-30.003-30.003-30.003h-31.444v-15.423H455.489z M406.479,351.619
	h-300.97v-15.435h300.97V351.619z M467.926,205.807v100.374c0,6.858-5.579,12.437-12.437,12.437H56.511
	c-6.858,0-12.437-5.579-12.437-12.437V205.807c0-6.858,5.579-12.437,12.437-12.437h398.978
	C462.347,193.37,467.926,198.949,467.926,205.807z M406.479,175.804h-300.97v-15.423h300.97V175.804z"/>
<path d="M84.875,54.42h4.345c4.851,0,8.783-3.933,8.783-8.783s-3.933-8.783-8.783-8.783h-4.345
	c-13.516,0-24.511,10.112-24.511,22.543v41.574c0,12.431,10.995,22.543,24.511,22.543h4.345c4.851,0,8.783-3.933,8.783-8.783
	s-3.933-8.783-8.783-8.783h-4.345c-3.764,0-6.945-2.279-6.945-4.977V59.398C77.93,56.699,81.111,54.42,84.875,54.42z"/>
<path d="M427.125,105.948h-4.345c-4.851,0-8.783,3.933-8.783,8.783s3.933,8.783,8.783,8.783h4.345
	c13.516,0,24.511-10.112,24.511-22.543V59.398c0-12.431-10.995-22.543-24.511-22.543h-4.345c-4.851,0-8.783,3.933-8.783,8.783
	s3.933,8.783,8.783,8.783h4.345c3.764,0,6.945,2.279,6.945,4.977v41.574C434.07,103.669,430.89,105.948,427.125,105.948z"/>
<path d="M84.875,230.236h4.345c4.851,0,8.783-3.933,8.783-8.783s-3.933-8.783-8.783-8.783h-4.345
	c-13.516,0-24.511,10.112-24.511,22.543v41.562c0,12.437,10.995,22.555,24.511,22.555h4.345c4.851,0,8.783-3.933,8.783-8.783
	s-3.933-8.783-8.783-8.783h-4.345c-3.764,0-6.945-2.285-6.945-4.989v-41.562C77.93,232.515,81.111,230.236,84.875,230.236z"/>
<path d="M422.781,230.236h4.345c3.764,0,6.945,2.279,6.945,4.977v41.562c0,2.704-3.18,4.989-6.945,4.989h-4.345
	c-4.851,0-8.783,3.933-8.783,8.783s3.933,8.783,8.783,8.783h4.345c13.516,0,24.511-10.118,24.511-22.555v-41.562
	c0-12.431-10.995-22.543-24.511-22.543h-4.345c-4.851,0-8.783,3.933-8.783,8.783S417.93,230.236,422.781,230.236z"/>
<path d="M84.875,406.04h4.345c4.851,0,8.783-3.933,8.783-8.783s-3.933-8.783-8.783-8.783h-4.345
	c-13.516,0-24.511,10.118-24.511,22.555v41.562c0,12.431,10.995,22.543,24.511,22.543h4.345c4.851,0,8.783-3.932,8.783-8.783
	s-3.933-8.783-8.783-8.783h-4.345c-3.764,0-6.945-2.279-6.945-4.977v-41.562C77.93,408.372,81.175,406.04,84.875,406.04z"/>
<path d="M427.125,457.568h-4.345c-4.851,0-8.783,3.933-8.783,8.783s3.933,8.783,8.783,8.783h4.345
	c13.516,0,24.511-10.112,24.511-22.543v-41.562c0-12.437-10.995-22.555-24.511-22.555h-4.345c-4.851,0-8.783,3.933-8.783,8.783
	s3.933,8.783,8.783,8.783h4.345c3.699,0,6.945,2.332,6.945,4.989v41.562C434.07,455.289,430.89,457.568,427.125,457.568z"/>
<path d="M268.361,38.4H145.396c-4.851,0-8.783,3.933-8.783,8.783s3.933,8.783,8.783,8.783h122.964c4.851,0,8.783-3.933,8.783-8.783
	S273.211,38.4,268.361,38.4z"/>
<path d="M268.361,71.401H145.396c-4.851,0-8.783,3.933-8.783,8.783c0,4.851,3.933,8.783,8.783,8.783h122.964
	c4.851,0,8.783-3.933,8.783-8.783C277.144,75.334,273.211,71.401,268.361,71.401z"/>
<path d="M268.361,104.403H145.396c-4.851,0-8.783,3.933-8.783,8.783s3.933,8.783,8.783,8.783h122.964
	c4.851,0,8.783-3.933,8.783-8.783S273.211,104.403,268.361,104.403z"/>
<path d="M374.824,105.468c13.942,0,25.284-11.337,25.284-25.272c0-13.942-11.342-25.284-25.284-25.284
	c-13.942,0-25.284,11.342-25.284,25.284C349.541,94.131,360.883,105.468,374.824,105.468z M374.824,72.479
	c4.256,0,7.717,3.462,7.717,7.717c0,4.249-3.462,7.706-7.717,7.706c-4.256,0-7.717-3.457-7.717-7.706
	C367.107,75.94,370.569,72.479,374.824,72.479z"/>
<path d="M268.361,214.216H145.396c-4.851,0-8.783,3.933-8.783,8.783s3.933,8.783,8.783,8.783h122.964
	c4.851,0,8.783-3.933,8.783-8.783S273.211,214.216,268.361,214.216z"/>
<path d="M268.361,247.217h-67.923c-4.851,0-8.783,3.933-8.783,8.783s3.933,8.783,8.783,8.783h67.923
	c4.851,0,8.783-3.933,8.783-8.783S273.211,247.217,268.361,247.217z"/>
<path d="M145.396,264.783h19.909c4.851,0,8.783-3.933,8.783-8.783s-3.933-8.783-8.783-8.783h-19.909
	c-4.851,0-8.783,3.933-8.783,8.783S140.546,264.783,145.396,264.783z"/>
<path d="M268.361,280.206H145.396c-4.851,0-8.783,3.933-8.783,8.783s3.933,8.783,8.783,8.783h122.964
	c4.851,0,8.783-3.933,8.783-8.783S273.211,280.206,268.361,280.206z"/>
<path d="M374.824,230.71c-13.942,0-25.284,11.342-25.284,25.284c0,13.942,11.342,25.284,25.284,25.284
	c13.942,0,25.284-11.342,25.284-25.284C400.108,242.052,388.766,230.71,374.824,230.71z M374.824,263.712
	c-4.256,0-7.717-3.462-7.717-7.717c0-4.256,3.462-7.717,7.717-7.717c4.256,0,7.717,3.462,7.717,7.717
	C382.542,260.25,379.08,263.712,374.824,263.712z"/>
<path d="M268.361,407.597c4.851,0,8.783-3.933,8.783-8.783s-3.932-8.783-8.783-8.783h-19.909c-4.851,0-8.783,3.933-8.783,8.783
	s3.933,8.783,8.783,8.783H268.361z"/>
<path d="M145.396,407.597h72.022c4.851,0,8.783-3.933,8.783-8.783s-3.933-8.783-8.783-8.783h-72.022
	c-4.851,0-8.783,3.933-8.783,8.783S140.546,407.597,145.396,407.597z"/>
<path d="M145.396,440.587h122.964c4.851,0,8.783-3.933,8.783-8.783s-3.932-8.783-8.783-8.783H145.396
	c-4.851,0-8.783,3.933-8.783,8.783S140.546,440.587,145.396,440.587z"/>
<path d="M268.361,473.588c4.851,0,8.783-3.933,8.783-8.783s-3.932-8.783-8.783-8.783H145.396c-4.851,0-8.783,3.932-8.783,8.783
	s3.933,8.783,8.783,8.783H268.361z"/>
<path d="M400.108,431.81c0-13.942-11.342-25.284-25.284-25.284c-13.942,0-25.284,11.342-25.284,25.284s11.342,25.284,25.284,25.284
	C388.766,457.093,400.108,445.751,400.108,431.81z M367.107,431.81c0-4.256,3.462-7.717,7.717-7.717
	c4.256,0,7.717,3.462,7.717,7.717s-3.462,7.717-7.717,7.717C370.569,439.527,367.107,436.065,367.107,431.81z"/>
<g>
</g>
<g>
</g>
<g>
</g>
<g>
</g>
<g>
</g>
<g>
</g>
<g>
</g>
<g>
</g>
<g>
</g>
<g>
</g>
<g>
</g>
<g>
</g>
<g>
</g>
<g>
</g>
<g>
</g>
</svg>
